<?xml version="1.0" encoding="UTF-8"?>
<!DOCTYPE svg PUBLIC "-//W3C//DTD SVG 1.1//EN" "http://www.w3.org/Graphics/SVG/1.1/DTD/svg11.dtd">
<!-- Creator: CorelDRAW -->
<svg xmlns="http://www.w3.org/2000/svg" xml:space="preserve" width="945px" height="496px" version="1.1" shape-rendering="geometricPrecision" text-rendering="geometricPrecision" image-rendering="optimizeQuality" fill-rule="evenodd" clip-rule="evenodd"
viewBox="0 0 945 496.13"
 xmlns:xlink="http://www.w3.org/1999/xlink"
 xmlns:xodm="http://www.corel.com/coreldraw/odm/2003">
 <g id="Layer_x0020_1">
  <metadata id="CorelCorpID_0Corel-Layer"/>
  <path fill="#FEFEFE" d="M103.83 169.61c0,4.69 -6.34,8.99 -12.01,15.62l-34.27 36.24c-2.56,2.53 -5.07,4.43 -7.02,7.27 1.21,4.42 23.37,26.15 26.72,30.38 2.6,3.28 4.04,4.51 6.94,7.33 2.89,2.81 3.87,4.75 6.75,7.53 3.53,3.4 12.89,12.48 12.89,16.54l0 82.96c9.69,0 70.44,-0.87 75.06,0.8 2.83,1.04 3.64,3.08 8.29,7.79l11.28 11.93c6.08,5.92 15.4,16.79 21.99,22.64 0.5,0.45 0.53,0.36 1.41,1.27l7.78 8.29c3.25,3.29 3.85,5.54 7.89,8.18l44.94 -46.12c1.41,-1.37 2.25,-2.12 3.61,-3.53 3.26,-3.38 9.33,-11.25 11.97,-11.25l75.88 0 0 -15.31 -9.03 0 0 5.6 -71.37 0c-2.7,0 -2.11,1.09 -3.52,2.73 -1.32,1.53 -1.94,2.19 -3.47,3.67 -10.27,9.95 -17.22,18.69 -28.02,29.12l-14.01 14.56c-2.62,2.55 -4.03,5.36 -6.98,7.29 -1.73,-1.24 -3.18,-3.57 -5.19,-5.53l-23.06 -23.36c-2.36,-2.39 -2.95,-3.8 -5.39,-6.21l-19.84 -20.39c-3.22,-2.89 -0.74,-1.35 -3.65,-1.26l-58.52 0.28c-13.63,0.18 -9.02,2.01 -9.02,-47.67 0,-7.65 -0.02,-15.3 0,-22.95 0.04,-12.44 0.7,-9.88 -11.98,-22.71l-22.13 -24.28c-4.73,-5.21 -13.26,-13.64 -16.48,-18.32 4.12,-2.7 9.76,-8.73 13.03,-12.87 4.38,-5.54 37.56,-37.33 37.56,-40.09 0,-33.46 0.11,-64.33 0.11,-97.8l-9.14 0 0 91.63z"/>
  <g id="_2664437080176">
   <path fill="#FEFEFE" d="M203.07 149.37l-7.11 -6.54c-1.38,-0.92 -2.97,-1.32 -4.67,-2.44 -3.18,-2.07 -1.33,-1.7 -4.52,-3.82 0.78,6 1.64,4.64 6.74,7.67 3.42,2.03 6.71,3.65 9.56,5.13z"/>
   <path fill="#FEFEFE" d="M315.62 170.25c-1.69,-3.43 -1.03,-4.09 -5.11,-5.13 0.62,3.24 2.08,3.74 5.11,5.13z"/>
  </g>
  <g id="_2664437081712">
   <path fill="#FEFEFE" d="M284.11 271.08c-0.55,1.81 -1.59,2.86 -2.63,4.86 6.4,-0.92 4.97,-4.99 11.56,-4.67 -1.58,2.54 -1.49,0.93 -0.85,2.97 5.03,1.05 3.22,0.8 7.66,-0.5 -4.88,-1.33 -1.44,0.72 -2.77,-2.72 1.73,-1.15 3.09,-2.23 4.53,-3.63 -4.55,0.13 -4.58,1.51 -8.4,1.94 -6.31,0.73 -3.34,-0.96 -9.1,1.75z"/>
   <path fill="#FEFEFE" d="M321.3 260.05c1.63,3.6 1.54,1.15 -0.06,4.22 3.49,-1.78 7.02,-4.9 6.98,-8.89 -5.3,2.35 -1.85,3.01 -6.92,4.67z"/>
  </g>
  <g id="_2664437080560">
   <path fill="#FEFEFE" d="M298.26 151.99l-0.92 0.08c16.64,14.83 32.14,9 39.79,33.56 1.18,-10.63 -2.93,-13.92 -14.36,-21.05 -3.47,-2.17 -8.05,-4.48 -12.22,-5.9 -5.91,-2.02 -6.3,-4.75 -12.29,-6.69z"/>
   <path fill="#FEFEFE" d="M309.08 269.03c1.17,-0.2 2.67,-0.13 3.54,-0.94 2.57,-2.39 0.24,-3.12 0.1,-3.43 -2.57,0.1 -2.67,0.65 -3.64,4.37z"/>
  </g>
  <g id="_2664437079072">
   <path fill="#D8D752" d="M172.23 190.47l-5.76 -1.47 -1.93 -0.21c-1.1,-3.87 -3.55,-11.4 -5.79,-14.39 -3.34,6.48 3.84,16.4 7.53,21.38 2.04,2.74 2.44,3.12 6.45,3.5l-0.5 -8.81z"/>
   <path fill="#D8D752" d="M181.04 210.58c0.36,-5.31 0.38,-9.52 -5.51,-7.26 0.3,1.62 -1.2,1.06 2.34,4.29 0.13,0.12 0.39,0.25 0.53,0.37l2.05 1.97c0.13,0.13 0.38,0.43 0.59,0.63z"/>
  </g>
  <g id="_2664437076336">
   <path fill="#73751A" d="M165.35 182.62c4.35,-0.26 0.18,-3.95 6.61,-0.36 0.27,-5.1 1.29,-5.15 2.04,-10.36 11.57,0.58 2.95,-10.04 2.95,-10.04 -1.27,-0.64 -4.36,-0.24 -5.84,2.3 -1.43,2.47 -0.19,2.81 -2.62,6.51 -1.85,2.82 -0.32,-0.42 -1.65,2.44 -1.43,3.08 -0.65,4.86 -0.81,7.11l-0.49 1.96c-0.02,0.06 -0.16,0.28 -0.19,0.44z"/>
   <path fill="#73751A" d="M166.47 189l5.76 1.47c1.18,-1.38 -0.41,-0.83 2.22,-2.33 -1.32,-0.91 -1.22,-1.23 -2.85,-0.73 -0.11,0.04 -0.31,0.36 -0.48,0.53 -0.33,-5.66 0.05,-1.98 -1.25,-3.76l-4.17 0.14 0.77 4.68z"/>
  </g>
  <g id="_2664437078208">
   <path fill="#DCC511" d="M204.28 87.98c2.87,2.9 8.56,4.69 13.07,6.03l0.03 -17.94c-5.11,0.93 -12.39,6.28 -13.1,11.91z"/>
   <path fill="#DCC511" d="M230.87 319.67c4.46,2.63 14.29,1.15 22.13,2.05l-2.26 -6.2 -20 0.24 0.13 3.91z"/>
   <path fill="#DCC511" d="M222.16 302.36c-1.85,1.79 -2.72,7.28 -3.31,10.36l9.69 -0.21 -2.9 -12.49c-2.49,1.22 -1.73,0.63 -3.48,2.34z"/>
   <polygon fill="#DCC511" points="219.09,320.88 228.8,321.36 228.86,315.52 219.38,315.52 "/>
   <polygon fill="#DCC511" points="208.54,321.14 217.54,321.04 217.57,315.47 209.61,315.94 "/>
  </g>
  <g id="_2664437073888">
   <path fill="#E4E5CB" d="M173.07 152.88c2.55,3.21 12.27,12.92 14.95,14.13 -1.56,3.11 -1.4,0.96 -1.84,5.02l3.65 3.46c0.92,-1.77 -0.1,-2.57 0.26,-3.84 3.03,1.71 6.46,2.49 10.8,2.05 -4.82,-5.8 -7.93,-7.77 -11.81,-13.86 -2.99,-4.68 -9.4,-14.08 -16.01,-6.96z"/>
   <path fill="#E4E5CB" d="M211.05 312.6l5.51 -0.03c-0.84,-11.59 2.27,-11.59 -4.17,-14.22l-1.34 14.25z"/>
  </g>
  <g id="_2664437074032">
   <path fill="#E8E9D4" d="M236.25 31.3c-1.75,0.93 -1.93,0.48 -4,-0.1l-1.91 115.74c1.65,0.51 2.82,1.09 4,1.92 3.29,2.32 0.79,1.42 4.28,3.37l-3.2 -114.12c3.25,6.76 3.56,88.62 4.3,108.61 0.32,8.7 0.96,6.53 4.98,11.44l-4.52 -127.81 -3.93 0.95z"/>
   <path fill="#E8E9D4" d="M230.65 172.15l-1.23 134.46c2.5,-1.42 1.3,1.74 3.01,-9.2 0.77,-4.88 0.59,-8.01 4.16,-9.98 4.8,1.86 -0.33,0.45 3.21,4.49 1.99,-3.78 -2.47,-107.2 -2.12,-122.36l-7.03 2.59z"/>
   <path fill="#E8E9D4" d="M222.43 174.42c-1.73,3.9 -3.13,124.91 -3.11,125.98l1.69 -3.53c1.09,-2.02 0.24,-0.98 1.79,-2.49 -1.01,-0.36 0.65,0.13 -0.77,0.16 -2.56,0.06 1.17,1.28 -1.68,-0.16 0.79,-3.21 0.35,-2.76 3.17,-3.76 2.35,2.15 2.23,3.64 2.83,7.94 0.01,0.11 0.05,0.45 0.06,0.53 0.02,0.09 0.02,0.35 0.07,0.52 2.23,-4.67 2.89,-111.84 3,-126.89l-7.05 1.7z"/>
   <path fill="#E8E9D4" d="M242.57 295.01c2.09,-1.01 3.71,-1.6 6.26,-1.89l-3.56 -127.73c-9.59,-0.53 -5.71,8.5 -5.69,25.79 0.01,11.53 0.91,22.91 0.99,34.4 0.17,22.86 0.86,46.78 2,69.43z"/>
   <path fill="#E8E9D4" d="M215.44 176.03l-3.08 114.3 3.77 1.89c-0.33,2.37 -1.07,3.56 0.24,5.9 1.52,-2.24 4.96,-112.4 3.74,-122.76l-4.67 0.67z"/>
   <path fill="#E8E9D4" d="M227.27 33.22l-1.93 100.29c-0.44,13.3 -0.58,9.75 3.16,11.56l3.33 -114.07c-2.84,0.24 -3.62,-0.54 -4.56,2.22z"/>
   <path fill="#E8E9D4" d="M226.53 33.22c-1.32,-1.21 0.78,0.43 -1.68,-1.39 -0.13,-0.09 -0.58,-0.08 -0.68,-0.41 -0.09,-0.33 -0.46,-0.26 -0.69,-0.39 -1.92,22.83 -2.47,59.41 -3.08,84.26 -0.3,12.07 -2.66,24.01 2.42,26.83 2.98,-5.63 1.47,-92.87 3.71,-108.9z"/>
   <path fill="#E8E9D4" d="M244.16 301.68c0.18,2.7 0,6.52 5.87,6.62l-0.75 -7.17 -5.12 0.55z"/>
  </g>
  <g id="_2664437050224">
   <path fill="#DCC511" d="M245.9 92.03c4.55,4.67 9.72,-0.44 16.51,0.67 -3.69,0.82 -7.94,1.84 -10.76,4.39 1.47,3.62 12.05,11.38 16.7,13.77 8.75,4.5 13.15,5.42 23.81,1.61 -4.59,-5.27 -14.06,-7.73 -13.06,-26.51 0.26,-4.99 2.13,-10.25 -2.19,-11.96 6.1,-4.19 4.06,-6.26 8.76,-18.89 2.38,-6.38 7.37,-14.97 8.74,-20.42 -10.15,7.3 -16.91,19.72 -23.82,29.65 -4.12,5.92 -12.86,17.47 -18.23,21.18 -4.39,3.03 -5.8,1.52 -6.46,6.51z"/>
   <path fill="#DCC511" d="M185.91 113.87l2.9 11.58c4.6,-2.94 0.37,-7.86 21.53,-16.13 5.44,-2.13 7.91,-0.71 6.53,-6.67 -10.45,-3 -23.37,9.72 -30.96,11.22z"/>
  </g>
  <g id="_2664437050080">
   <path fill="#DCC511" d="M195.96 142.83l7.11 6.54c-2.85,-1.48 -6.14,-3.1 -9.56,-5.13 -5.1,-3.03 -5.96,-1.67 -6.74,-7.67 3.19,2.12 1.34,1.75 4.52,3.82 1.7,1.12 3.29,1.52 4.67,2.44zm-14.92 67.75l-0.75 1.67c-1.1,-1.11 -6.8,-7.65 -8,-8.52 -1.71,0.29 0.18,-1.39 -1.41,2.63l-10.12 -14.17c-3.5,-5.21 -6.32,-11.83 -5.87,-19.12 0.55,-9.04 6.61,-27.63 19.87,-29.29 -1.57,1.77 -16.03,8.62 -17.05,25.3l1.37 5.14c1.78,-9.04 1.09,-12.05 6.55,-17.64 20.33,-20.82 23.03,2.83 33.05,9.9 7.88,5.57 3.8,1.03 2.66,5.28 15.91,1.73 29.88,-0.95 42.94,-10.93 -1.52,-1.22 -2.6,-1.66 -3.87,-2.48 -12.64,-8.24 -11.85,-12.16 -35.92,-20.1 -9.8,-3.23 -14.29,-5.92 -22.93,-9.42l-22.79 -10.5c5.45,-2.54 12.27,2.44 17.9,3.57 -0.61,-3.32 -8.74,-10.52 -11.29,-14.11 12.62,3.31 12.34,17.33 20.7,18.59 -2.03,-15.02 -10.04,-20.18 -16.3,-28.15 -2.45,-3.12 -2.12,-3.4 -5.31,-5.9 -5.69,-4.45 -15.1,-11.15 -22.17,-11.91 1.72,5.93 4.85,14.35 2.35,21.8 -4.29,12.84 -12.02,-2.88 -21,29.59 -0.91,3.31 -4.65,18.48 -5.11,19.1l-9.65 -2.34c1.59,4.67 4.95,10.86 8.73,12.77l6.59 3.72c6.59,2.81 1.8,0.46 6.06,4.83 0.23,-0.21 2.78,0.45 1.7,-3.77 -0.6,-2.33 -7.13,-4.45 -12.41,-8.01 3.93,-0.08 6.48,2.18 10.89,3.26l0.72 -1.58c0.09,-0.22 0.49,-1.27 0.59,-1.59l2.79 -10.48c1.57,-4.69 4.09,-8.58 6.93,-11.04 -1.2,3.88 -3.04,6.28 -4.57,11.43 -3.85,12.93 -4.68,18.48 2.38,27.12 10.6,12.98 22.15,40.33 44.29,40.8 -0.33,-2.26 -1.12,-3.84 -2.54,-5.45z"/>
   <path fill="#DCC511" d="M275.11 362.01c-2.33,-2.47 -7.3,-6.82 -8.61,-10.45 3.33,1.24 5.24,4.32 8.75,6.33 4.01,2.31 8.86,0.91 14.31,1.87 -2.3,-4.16 -1.73,-2.24 -5.99,-4.2 -10.28,-4.74 -20.03,-16.44 -26.18,-26.32l-3.61 -5.06c-7.79,-0.43 -41.08,-1.29 -46.04,0.05 -2.76,2.48 -5.28,8.51 -7.1,11.07 -2.6,3.63 -5.1,6.09 -7.92,9.23 -8.83,9.82 -17.72,10.28 -21.8,13.72 12.31,4.4 12.25,0.03 21.24,-3.74 -2.9,6.97 -4.68,1.91 -7.17,7.76l90.12 -0.26z"/>
   <path fill="#DCC511" d="M309.08 269.03c0.97,-3.72 1.07,-4.27 3.64,-4.37 0.14,0.31 2.47,1.04 -0.1,3.43 -0.87,0.81 -2.37,0.74 -3.54,0.94zm12.22 -8.98c5.07,-1.66 1.62,-2.32 6.92,-4.67 0.04,3.99 -3.49,7.11 -6.98,8.89 1.6,-3.07 1.69,-0.62 0.06,-4.22zm-19.69 7.34c-1.44,1.4 -2.8,2.48 -4.53,3.63 1.33,3.44 -2.11,1.39 2.77,2.72 -4.44,1.3 -2.63,1.55 -7.66,0.5 -0.64,-2.04 -0.73,-0.43 0.85,-2.97 -6.59,-0.32 -5.16,3.75 -11.56,4.67 1.04,-2 2.08,-3.05 2.63,-4.86 -0.09,-0.18 -0.29,-0.62 -0.36,-0.48 -0.08,0.15 -0.33,-0.39 -0.45,-0.48 -0.13,-0.1 -0.42,-0.34 -0.59,-0.46l-1.57 -1.02c-0.24,-0.16 -0.65,-0.34 -0.93,-0.56l4.92 -2.48c-2.35,0.35 -0.81,-0.45 -2.39,1.08 -4.28,4.16 0.58,3.16 -7.84,3.75 -8.63,-0.54 -22.58,12.08 -22.68,12.27 -4.4,7.92 5.08,22.82 2.64,26.86l-2.14 2.02c5.4,8.88 6.74,27.76 22.86,25.8 -1.61,-3.54 0.03,-6.98 -0.52,-10.57 -0.84,-5.46 -1.77,-1.8 -5.13,-7.25 1.59,1.01 2.53,1.69 4.82,2.06l-2.72 -2.71c6.39,0.01 6.55,0.51 9.97,-4.38 6.19,-8.86 4.23,-16.98 -3.3,-23.76l-3.46 -3.36c-0.15,-0.17 -0.4,-0.46 -0.58,-0.72 8.63,3.68 8.85,6.61 12.96,9.8 3.02,-3.8 2.6,-1.12 12.52,-6.25 4.08,-2.11 9.67,-4.57 13.23,-7.04 6.73,-4.69 17.99,-13.07 21.87,-19.37l-5.97 -0.43c0.24,-1.56 0.28,-1.38 0.72,-3.15l2.48 -8.55c0.04,-0.19 0.11,-0.55 0.16,-0.82 -0.24,0.14 -0.58,0.15 -0.65,0.5 -0.37,1.62 -4.1,0.89 -1.38,2.53l-4.04 -2.02c-1.71,2.96 -0.89,3.36 -5.61,4.23 -6.8,1.25 -2.94,-2.99 -5.52,1.83 -10.61,-2.5 -8.05,-1.76 -9.08,2.03l6.05 -3.03c-1.07,8.28 -1.01,4.15 -5.04,9.56 -0.16,0.22 -0.3,0.48 -0.46,0.7 -0.18,0.26 -0.64,1.11 -0.8,1.32 -2.8,3.72 -1.22,0.3 -4.49,-1.14z"/>
   <path fill="#DCC511" d="M142.79 238.07c2,0.75 7.96,1.73 9.69,2.54 -3.05,6.49 -2.88,-3.64 -12.34,1.72 -4.68,2.65 -7.8,5.12 -11.23,8.04 -3.82,3.25 -15.22,14.56 -16.31,20.29 22.8,-12.87 48.13,-17.85 75.35,-6.48 7.78,3.24 13.43,8.28 21.43,11.07l0.25 -8.62 -19.71 -9.63c-16.03,-6.53 -44.93,-1.34 -59.54,0.8 7.03,-3.36 17.06,-5.85 26.35,-5.87 8.99,-0.02 20.58,0.95 29.39,3.23 19.54,5.06 18.26,8.49 24.04,10.09 -0.52,-5.8 2.95,-28.26 -16.65,-28.57 0.52,2.96 0.85,6.19 -1.4,9.15 -2.19,-4.21 -1.13,-5.39 -5.8,-7.41 -3.42,-1.47 -8.4,-1.5 -12.69,-1.82l-1.26 6.37c-3.29,-3.63 -6.21,-6.49 -12.76,-6.93 -6.76,-0.46 -8.89,1.66 -16.81,2.03z"/>
   <path fill="#DCC511" d="M173.22 96.74c2.46,4.17 2.65,2.63 6.49,7.67 2.44,3.21 3.98,6.05 5.14,9.61l3.31 -2.67c1.37,-1.08 1.95,-1.48 3.71,-2.37 2.96,-1.51 5.38,-2.63 8.16,-3.95 9.82,-4.69 6.48,-3.51 16.86,-4.34 0.58,-7.07 -2.29,-5.2 -7.76,-7.5 -5.89,-2.47 -4.22,-5.06 -11.9,-5.4 -11.85,-0.52 -17.48,2.25 -24.01,8.95z"/>
   <path fill="#DCC511" d="M239.63 301.13l-6.15 0.13c-0.85,6.94 0.31,6.34 0.27,7.44l-1.41 4.08 9.6 -0.12 -2.31 -11.53z"/>
  </g>
  <path fill="#E63C31" d="M68.78 154.76c0,3.12 -5.82,7.15 -7.85,9.34 -1.9,2.06 -1.87,2.49 -3.57,4.52l-37.87 40c-3.4,3.37 -4.73,5.82 -8.06,9.13 -3.82,3.8 -5.8,5.02 -8.36,9.85 2.32,3.47 4.74,6.32 7.84,9.36l50.06 56.14c1.73,1.79 7.81,8.52 7.81,10.39l0 109.27 95.03 0c2.1,0 12.05,11.43 14.42,13.89l42.04 44.94c2.7,3.39 15.61,18.07 19.35,19.07 1.28,-4.79 27.7,-31.11 36.15,-40.71l27.84 -29.81c2.56,-3.07 6.93,-8.4 11.83,-8.4l94.01 0 0 -50.58 -11.12 0 0 40.47 -89.97 0c-3.58,0 -14.81,14.37 -17.94,17.45l-51.81 56.41c-7.18,-4.82 -11.7,-12.3 -17.94,-18.47l-48.44 -51.69c-2.15,-2.49 -2,-3.7 -6.4,-3.7l-86.94 0 0.46 -42.47c0.01,-2.47 -0.12,-1.12 -0.33,-4.17 -0.29,-4.33 -0.13,-8.71 -0.13,-13.06l0.03 -37.46c0.08,-6.79 0.93,-6.74 -2.74,-10.42l-59.96 -66.45 61 -65.49c4.6,-5.01 1.67,-1.06 1.67,-5.33l0 -102.19 113.22 0 0 -10.12 -123.33 0 0 110.29z"/>
  <path fill="#128100" d="M590.35 232.81c-1.78,-6.56 -1.06,-68.63 -0.3,-78.73 10.81,-2.27 40.01,-0.7 49.14,4.51 11.38,6.51 17.86,17.69 17.52,35.64 -0.76,41.19 -31.57,40.64 -66.36,38.58zm118.73 -79.52c24.77,1 24.56,7.07 24.39,30.81l-0.03 113.32c-0.04,19.02 3.7,34.25 -23.41,32.99l0.06 17.13 69.74 -0.17 -0.31 -16.83c-22.54,1.18 -25.38,-4.57 -25.24,-26.04l-1.03 -155.9c3.87,7.88 45.4,164.91 53.09,192.64l2.41 6.01 12.13 0.24 7.67 -23.27c2.11,-8.24 4.45,-16.45 6.76,-24.59 4.51,-15.85 10.21,-33.18 13.85,-48.95 7.51,-32.48 18.87,-66.21 27.41,-98.01 1.53,4.52 0.3,85.9 0.34,99.22 0.05,16.84 0.17,33.74 0.09,50.58 -0.08,14.91 1.48,30.57 -23.76,27.4l0.28 17.97 75.73 -0.55 -0.17 -16.34c-24.76,-2.51 -22.54,-4.8 -22.55,-32.52l-0.02 -112.31c0.07,-20.43 -2.09,-34.77 22.83,-32.79l-0.28 -14.7 -66.26 0.31 -40.89 147.42c-5.88,-7.18 -31.98,-125.89 -40.56,-147.63 -10.62,0.72 -65.14,1.26 -72.94,-0.63 -0.05,4.96 -0.86,10.58 0.67,15.19zm-281.95 60.69c8.07,-7.55 6.89,-7.53 15.09,-16.32 1.84,-1.97 3.48,-3.81 5.6,-5.56 9.5,-7.83 7.93,-8.15 15.51,-15.79 13.26,-13.37 16.41,-23.22 41.46,-22.76l-0.26 -14.65 -81.18 -0.05 0.41 14.56c40.4,-2.32 7.02,28.08 -5.32,39.7 -4.45,4.19 -12.65,14.71 -19.95,21.48 -3.78,3.5 -7.72,10.05 -11.72,13.6 -4.42,3.92 -4.88,4.7 -8.13,9.08 -1.69,2.27 -2.6,3.45 -4.16,4.94 -7.67,7.32 -4,6.72 -8.72,15.52l-25.1 25.46c-3.88,3.76 -4.45,4.16 -8.73,7.09 -2.25,26.22 6.09,41.48 -27.26,39.89l-0.03 17.31 90.47 -0.36 -0.07 -16.29c-6.79,-1.17 -10.19,0.93 -16.88,-2.17 -14.28,-6.61 -10.58,-19.95 -10.59,-45.45 0,-8.19 7.43,-14.74 14.77,-22.03 2.51,-2.5 13.22,-16.04 18.2,-19.56l29.85 48.98c9.15,14.81 23.18,30.74 9.68,38.43 -4.81,2.74 -11.82,1.49 -17.31,1.83l-0.67 16.51 88.7 -0.01 0.24 -17.35c-13.47,1.27 -16.46,-2.52 -22.87,-10.14l-53.12 -85.45c-6,-8.84 -12.59,-16.06 -7.91,-20.44zm128.96 99.57c-1.64,12.63 -7.33,17.51 -24.72,17.08l-0.07 16.66 86.26 -0.2 0.14 -16.38c-5.44,-0.37 -12.05,0.19 -17.13,-1.09 -6.9,-1.74 -6.7,-4.3 -10.41,-8.04l-0.49 -73.05c40.75,-0.14 87.46,6.48 98.98,-40.12 5.05,-20.41 -1.11,-46.01 -18.63,-58.5 -2.07,-1.47 -4.11,-3.1 -6.8,-4.33 -13.75,-6.3 -23.71,-6.6 -39.46,-6.67 -30.51,-0.14 -61.36,-0.35 -92.19,0.02l0.42 14.51c17.57,0.08 23.6,2.07 24.06,20.53l-0.02 139.63 0.06 -0.05zm-250.67 -174.66c2.69,3.43 3.54,2.23 8.17,5.6 8.38,6.1 35.5,6.73 35.52,22.05 0,3.88 -1.38,-1.19 0.29,3.7 2.93,8.59 1.37,1.81 2.15,9.82 0.47,4.75 7.13,11.77 11,24.62 0.77,2.54 1.6,4.51 2.2,6.94 0.17,0.68 0.81,3.71 0.98,4.13 1.4,3.67 0.27,1.47 1.97,3.42 0.44,-15.28 0.05,-31.36 -0.07,-46.63 -0.12,-14.9 12.07,-20.91 27.56,-19.06l-0.76 -14.53 -89.01 -0.06z"/>
  <path fill="#198204" d="M87.99 158.8c0,4.79 -3.15,6.76 -5.81,9.37l-53.83 58.42c1.08,4.08 11.55,13.87 14.58,17.79l38.22 42.68c2.82,3.02 6.84,5.01 6.84,10.36l0 95.1c10.84,0 78.83,-1 83.99,0.92 3.48,1.3 10.53,10.58 13.35,13.96l32.62 34.13c4.64,4.25 16.21,18.5 19.65,20.8l4.18 -3.91c2.36,-2.35 2.12,-2.37 4.21,-4.89l48.83 -51.29c2.63,-2.85 7.45,-9.72 10.51,-9.72l84.91 0 0 -31.36 -10.1 0 0 20.23 -79.86 0c-3.1,0 -2.38,1.93 -7.83,7.34l-54.85 58.43c-1.93,-1.42 -3.56,-4.1 -5.8,-6.34l-54.04 -57.27c-3.6,-3.31 -0.83,-1.56 -4.09,-1.45l-65.48 0.32c-15.25,0.21 -10.09,2.31 -10.09,-54.65 0,-8.77 -0.03,-17.54 0,-26.31 0.04,-14.26 0.78,-11.32 -13.42,-26.03l-43.19 -48.84c4.61,-3.09 10.92,-10.01 14.58,-14.75 4.89,-6.35 42.03,-42.79 42.03,-45.95l0 -91.06 15.16 0 0 -11.13 -25.27 0 0 95.1z"/>
  <path fill="#DCC511" d="M347.61 260.58c1.99,-6.03 1.55,-1.75 2.66,-8.6l2.62 1.93c-0.55,1.44 -1.15,2.71 -2.04,3.96 -1.49,2.08 -0.75,1.59 -3.24,2.71zm6.72 -17.8c1.08,-4.09 0.18,-3.9 3.8,-5.93l-0.77 5.93 -3.03 0zm-37.59 9.15c8.25,-5.64 16.02,-3 25.79,-29.64 1.83,-4.97 1.98,-10.45 2.93,-15.29 0.23,0.42 0.85,-0.36 1.15,4.4 0.27,4.32 -1.01,9.08 -2.23,12.85 -2.03,6.29 -2.72,8.51 -5.89,13.26 -3.74,5.6 -13.86,18.46 -21.75,14.42zm26.61 -56.21c1.34,4.29 -0.06,1.99 -0.62,2.96 -3.14,-2.03 -5.84,-7.14 -4.04,-11.72 2.63,1.88 0.97,-0.65 2.18,3.21l2.48 5.55zm-27.73 -25.47c-3.03,-1.39 -4.49,-1.89 -5.11,-5.13 4.08,1.04 3.42,1.7 5.11,5.13zm3.86 33.15l-5.7 0.24c1.5,5.96 13.54,8.23 15.21,8.21 -6.49,-0.17 -5.3,0.58 -7.49,3.25 -5.29,-3.25 -11.58,-3.59 -9.15,-10.74 -2.12,0.98 0.01,0.51 -2.53,0.28 -0.15,-0.01 -0.45,-0.09 -0.59,-0.11 -4.37,-0.72 -3.73,-0.63 -5.3,-2.74 -6.04,-8.12 -2.88,-11.75 -9.72,-9.75 -0.75,-1.4 0.41,-2.12 -1.01,-3.81 -12.22,11.76 -5.21,19.76 2.51,30.75 16.27,23.16 16.96,11.73 26.72,6.36 -2.97,8.5 -7.91,8.88 -12.8,14.68 -3.59,4.25 -8.78,10.16 -13.91,12.86l12.07 -2.84c-1.18,3 -2.45,3.62 -8.16,5.19 -3.33,0.92 -6.8,1.63 -9.72,2.42 -7.64,2.06 -13.54,3.63 -22,3.15 2.21,-1.4 2.84,-1.25 5.78,-2.06 0.26,-0.07 3.12,-0.95 3.2,-0.99 5.58,-2.65 0.79,-6 -2.81,-6.96 -9.96,-2.67 -14.59,-0.38 -22.49,3.15l0.11 24.41c5.02,-1.79 9.08,-7.32 20.27,-11.15l2.93 3.23c8.42,-0.59 3.56,0.41 7.84,-3.75 1.58,-1.53 0.04,-0.73 2.39,-1.08l-4.92 2.48c0.28,0.22 0.69,0.4 0.93,0.56l1.57 1.02c0.17,0.12 0.46,0.36 0.59,0.46 0.12,0.09 0.37,0.63 0.45,0.48 0.07,-0.14 0.27,0.3 0.36,0.48 5.76,-2.71 2.79,-1.02 9.1,-1.75 3.82,-0.43 3.85,-1.81 8.4,-1.94 3.27,1.44 1.69,4.86 4.49,1.14 0.16,-0.21 0.62,-1.06 0.8,-1.32 0.16,-0.22 0.3,-0.48 0.46,-0.7 4.03,-5.41 3.97,-1.28 5.04,-9.56l-6.05 3.03c1.03,-3.79 -1.53,-4.53 9.08,-2.03 2.58,-4.82 -1.28,-0.58 5.52,-1.83 4.72,-0.87 3.9,-1.27 5.61,-4.23l4.04 2.02c-2.72,-1.64 1.01,-0.91 1.38,-2.53 0.07,-0.35 0.41,-0.36 0.65,-0.5 -0.05,0.27 -0.12,0.63 -0.16,0.82l-2.48 8.55c-0.44,1.77 -0.48,1.59 -0.72,3.15l5.97 0.43c2.34,-1.02 8.83,-15.96 9.06,-17.67 0.83,-6.22 0.26,-1.4 -0.69,-3.05l-1.42 -1.92c6.17,0.53 4.49,2.49 3.22,7.66l1.27 0.78c0.1,0.09 0.4,0.28 0.5,0.39 1.39,1.52 0.65,-1.63 0.37,7.21l-1.99 -3.72c-0.79,-2.29 0.2,0.74 -0.48,-1.85l-0.34 -1.29c-2.29,10.35 -8.59,17.85 -16.32,23.55 -2.32,1.71 -3.8,3.48 -6.58,5.59 -16.08,12.22 -17.32,10.36 -34.28,16.73l0.88 8.71c7.77,-0.62 26.79,-7.36 33.38,-12.24 4.48,-3.33 2.31,-5.86 7.63,-7.63l-2.32 4.45c6.07,-1.88 20.23,-15.57 23.62,-20.54 8.07,-11.82 13.85,-6.46 14.04,-30.26 0.33,-40.15 -17.59,-53.97 -17.33,-59.53 0.11,-2.23 1.89,-4.17 -0.38,-6.93l0.17 3.74c-2.45,-1.49 -8.11,-7.95 -6.54,-13.6 5.63,-1.04 1.35,1.48 4.06,-1.06 -6.07,-4.64 -11.77,-0.52 -8.47,-4.43 1.27,-1.51 4.55,0.1 -0.4,-2.11l-17.35 -5.22c-6.07,-1.58 -6.62,-2.97 -10.82,-4.8 0.16,3.62 -0.3,1.62 0.64,3.89 3.63,0.19 -0.23,-0.72 -1.22,2.03 4.71,2.15 5.08,3.02 7.27,7.08 -8.56,-0.44 -7.88,-3.85 -12.38,-5.71 -3.72,-1.53 -1.36,-2.23 -3.78,-0.09 5.99,1.94 6.38,4.67 12.29,6.69 4.17,1.42 8.75,3.73 12.22,5.9 11.43,7.13 15.54,10.42 14.36,21.05 -7.65,-24.56 -23.15,-18.73 -39.79,-33.56 -3.18,-3.99 -4.08,-1.31 -7.98,-7.28l-1.21 -2.17c4.72,-2.76 2.04,-1.89 3.61,-7.6l0.48 -4.42 -5.35 4.81c-6.98,4.13 -2.13,13.94 1.39,19.19 4.13,6.15 12.27,5.83 22.66,15.77 6.21,5.95 8.72,16.34 11.13,27.11l3.36 6.89c1.38,2.11 2.15,3.22 5.45,3.75 4.56,0.72 12.6,-2.83 15.25,-4.07 -1.5,3.82 -13.77,11.47 -26.65,-0.65z"/>
  <g id="_2664436962752">
   <g>
    <path fill="#FEFEFE" d="M709.08 153.29c-1.53,-4.61 -0.72,-10.23 -0.67,-15.19 7.8,1.89 62.32,1.35 72.94,0.63 8.58,21.74 34.68,140.45 40.56,147.63l40.89 -147.42 66.26 -0.31 0.28 14.7c-24.92,-1.98 -22.76,12.36 -22.83,32.79l0.02 112.31c0.01,27.72 -2.21,30.01 22.55,32.52l0.17 16.34 -75.73 0.55 -0.28 -17.97c25.24,3.17 23.68,-12.49 23.76,-27.4 0.08,-16.84 -0.04,-33.74 -0.09,-50.58 -0.04,-13.32 1.19,-94.7 -0.34,-99.22 -8.54,31.8 -19.9,65.53 -27.41,98.01 -3.64,15.77 -9.34,33.1 -13.85,48.95 -2.31,8.14 -4.65,16.35 -6.76,24.59l-7.67 23.27 -12.13 -0.24 -2.41 -6.01c-7.69,-27.73 -49.22,-184.76 -53.09,-192.64l1.03 155.9c-0.14,21.47 2.7,27.22 25.24,26.04l0.31 16.83 -69.74 0.17 -0.06 -17.13c27.11,1.26 23.37,-13.97 23.41,-32.99l0.03 -113.32c0.17,-23.74 0.38,-29.81 -24.39,-30.81zm-6.47 6.52c16.82,0 25.27,-2.36 25.27,17.21l0 132.54c0,17.07 -8.08,14.16 -24.26,14.16l0 30.35 81.88 0 0 -30.35c-17.83,0 -25.41,4.47 -25.29,-17.17l0.02 -112.33c0.76,1.19 0.15,-0.14 0.95,2.08 0.1,0.29 0.69,2.27 0.7,2.33 10.17,37.43 19.66,78.46 30.34,115.33l10.47 40.11 24.26 0 44.48 -160.87 0 104.22c0,28.64 0.11,26.3 -23.25,26.3 -0.06,2.46 -0.58,3.92 -0.61,5.2 -0.08,3.31 0.61,0.71 0.61,4.92 0,3.94 0.32,17.44 -1.01,20.23l87.94 0 0 -30.35c-5.6,0 -22.24,2.59 -22.24,-7.08l0 -146.71c0,-12.43 9.47,-10.12 22.24,-10.12l0 -27.31 -77.83 0c-0.15,6.59 -23.38,86.38 -26.29,98.14 -1.92,7.76 -8.08,28.36 -8.08,34.4l-2.03 0c-0.1,-4.8 -2.42,-11.72 -3.63,-16.6l-30.74 -115.94 -83.9 0 0 27.31z"/>
    <path fill="#FEFEFE" d="M423.35 138.85l81.18 0.05 0.26 14.65c-25.05,-0.46 -28.2,9.39 -41.46,22.76 -7.58,7.64 -6.01,7.96 -15.51,15.79 -2.12,1.75 -3.76,3.59 -5.6,5.56 -8.2,8.79 -7.02,8.77 -15.09,16.32 -4.68,4.38 1.91,11.6 7.91,20.44l53.12 85.45c6.41,7.62 9.4,11.41 22.87,10.14l-0.24 17.35 -88.7 0.01 0.67 -16.51c5.49,-0.34 12.5,0.91 17.31,-1.83 13.5,-7.69 -0.53,-23.62 -9.68,-38.43l-29.85 -48.98c-4.98,3.52 -15.69,17.06 -18.2,19.56 -7.34,7.29 -14.77,13.84 -14.77,22.03 0.01,25.5 -3.69,38.84 10.59,45.45 6.69,3.1 10.09,1 16.88,2.17l0.07 16.29 -90.47 0.36 0.03 -17.31c33.35,1.59 25.01,-13.67 27.26,-39.89 4.28,-2.93 4.85,-3.33 8.73,-7.09l25.1 -25.46c4.72,-8.8 1.05,-8.2 8.72,-15.52 1.56,-1.49 2.47,-2.67 4.16,-4.94 3.25,-4.38 3.71,-5.16 8.13,-9.08 4,-3.55 7.94,-10.1 11.72,-13.6 7.3,-6.77 15.5,-17.29 19.95,-21.48 12.34,-11.62 45.72,-42.02 5.32,-39.7l-0.41 -14.56zm-117.93 0.04l89.01 0.06 0.76 14.53c-15.49,-1.85 -27.68,4.16 -27.56,19.06 0.12,15.27 0.51,31.35 0.07,46.63 -1.7,-1.95 -0.57,0.25 -1.97,-3.42 -0.17,-0.42 -0.81,-3.45 -0.98,-4.13 -0.6,-2.43 -1.43,-4.4 -2.2,-6.94 -3.87,-12.85 -10.53,-19.87 -11,-24.62 -0.78,-8.01 0.78,-1.23 -2.15,-9.82 -1.67,-4.89 -0.29,0.18 -0.29,-3.7 -0.02,-15.32 -27.14,-15.95 -35.52,-22.05 -4.63,-3.37 -5.48,-2.17 -8.17,-5.6zm13.05 60.39c4.38,0 0.9,-0.47 2.69,2.02 -3.61,5.41 4.56,-1.21 -1.68,2.1 12.88,12.12 25.15,4.47 26.65,0.65 -2.65,1.24 -10.69,4.79 -15.25,4.07 -3.3,-0.53 -4.07,-1.64 -5.45,-3.75l-3.36 -6.89c-2.41,-10.77 -4.92,-21.16 -11.13,-27.11 -10.39,-9.94 -18.53,-9.62 -22.66,-15.77 -3.52,-5.25 -8.37,-15.06 -1.39,-19.19l5.35 -4.81 -0.48 4.42c2.01,-0.59 1.87,-0.87 2.5,-1.18 3.54,-1.76 -2.19,0.05 3.06,-1.54l-0.67 6.81c0.17,-0.01 0.44,-0.24 0.5,-0.1 1.17,2.83 -0.63,0.26 3.18,-1.61 1.7,2.95 -0.06,0.75 3.56,3.59 2.62,2.05 2.27,0.91 3.84,3.8 4.2,1.83 4.75,3.22 10.82,4.8l17.35 5.22c4.95,2.21 1.67,0.6 0.4,2.11 -3.3,3.91 2.4,-0.21 8.47,4.43 -2.71,2.54 1.57,0.02 -4.06,1.06 -1.57,5.65 4.09,12.11 6.54,13.6l-0.17 -3.74c2.27,2.76 0.49,4.7 0.38,6.93 -0.26,5.56 17.66,19.38 17.33,59.53 -0.19,23.8 -5.97,18.44 -14.04,30.26 -3.39,4.97 -17.55,18.66 -23.62,20.54 -1.35,5.7 -1.73,1.45 -1.59,5.86 0.03,8.03 1.37,19.09 -2.25,24.05 -4.61,6.31 -11.03,4.28 -24.03,4.28 0,10.18 0.98,22.84 -1.01,31.37l-3.03 0c4.09,1.69 0.9,-2.95 5.05,3.03 -0.09,-2.81 -0.14,-2.25 -1.01,-4.05l96.16 0.12c7.91,-0.06 6.08,-1.96 5.96,-10.22 -0.31,-22.87 3.13,-20.46 -12.17,-20.23 -19.21,0.29 -15.03,-10.99 -15.14,-33.41 -0.09,-18.21 3.72,-13.13 17.62,-30.93 1.77,-2.28 5.81,-7.29 7.65,-8.53 8.13,15.38 22.49,37.63 31.92,53.04l7.87 13.42c1.78,6.15 -0.36,0.67 -0.36,5.38 -6.48,1.51 -14.3,1.01 -22.24,1.01 0,5.84 -1.06,7.67 -1.04,14.14 0.03,5.41 0.03,10.81 0.03,16.21l101.09 0 0 -30.35c-12.75,0 -15.39,1.57 -22.58,-6.75l-52.66 -83.88c-2.72,-4.44 -7.51,-10.62 -8.67,-15.6l49.77 -51.37c7.86,-7.4 13.78,-6.31 28.07,-6.31l0 -27.31 -94.01 0 0 27.31c25.68,0 29.04,-1.92 -1.78,28.58 -3.41,3.37 -4.72,5.83 -8.07,9.13l-32.61 35.14c0,-76.14 -5.83,-72.85 26.28,-72.85 1.72,-7.36 1.02,-18.34 1.02,-27.31l-89 0.04c-7.6,0.02 -7.42,-0.31 -12.14,-3.08 -2.95,-1.72 -3.54,-1.96 -7.86,-1.5 -0.29,0.03 -1.05,0.1 -1.31,0.16 -7.76,1.56 -12.91,8.37 -10.27,18.82 4.58,18.17 21.58,15.86 30.59,30.09 1.85,2.93 7.09,18.61 7.09,22.25z"/>
   </g>
   <path fill="#FEFEFE" d="M590.16 321.58c3.71,3.74 3.51,6.3 10.41,8.04 5.08,1.28 11.69,0.72 17.13,1.09l-0.14 16.38 -86.26 0.2 0.07 -16.66c31.95,0.79 24.41,-16.33 24.82,-66.6 0.24,-29.14 1.09,-61.22 -0.14,-90.06 -0.46,-18.46 -6.49,-20.45 -24.06,-20.53l-0.42 -14.51c30.83,-0.37 61.68,-0.16 92.19,-0.02 15.75,0.07 25.71,0.37 39.46,6.67 2.69,1.23 4.73,2.86 6.8,4.33 17.52,12.49 23.68,38.09 18.63,58.5 -11.52,46.6 -58.23,39.98 -98.98,40.12l0.49 73.05zm-64.46 -161.77c13.1,0 24.27,-2.28 24.27,12.15l0 140.63c0,13.8 -10.57,11.13 -24.27,11.13l0 30.35 98.06 0 0 -30.35c-8.57,0 -27.29,2.33 -27.29,-6.07l0 -62.73c28.46,0 61.33,3.5 81.64,-15.41 20.12,-18.74 23.36,-49.45 12.68,-73.94 -3.12,-7.15 -7.61,-11.49 -12.69,-16.64 -8.83,-8.96 -25.78,-16.43 -43.22,-16.43l-109.18 0 0 27.31z"/>
   <path fill="#FEFEFE" d="M598.49 159.81c23.9,0 51.55,-2.67 51.55,32.38 0,36.52 -22.02,35.41 -53.57,35.41l0 -61.71c0,-3.17 -2.64,-6.08 2.02,-6.08zm-8.14 73c34.79,2.06 65.6,2.61 66.36,-38.58 0.34,-17.95 -6.14,-29.13 -17.52,-35.64 -9.13,-5.21 -38.33,-6.78 -49.14,-4.51 -0.76,10.1 -1.48,72.17 0.3,78.73z"/>
  </g>
  <g id="_2664436962944">
   <g>
    <path fill="#FEFEFE" d="M816.84 80.9l0 -4.05 -8.09 0 0 33.39 8.09 0c0,-14.79 -2.78,-27.32 9.1,-27.32 7.95,0 6.06,20.66 6.06,27.32l7.08 0c0,-18.37 3.2,-30.56 -8.85,-33.73 -6.7,-1.75 -9.09,1.51 -13.39,4.39z"/>
    <path fill="#FEFEFE" d="M849.19 76.85l-5.06 0c0,7.92 -0.12,7.28 5.06,6.07l0 27.32 8.09 0 0 -26.31c7.74,0 7.07,0.67 7.07,-7.08l-7.07 0 0 -10.12 -8.09 0 0 10.12z"/>
    <polygon fill="#FEFEFE" points="581.3,110.24 589.39,110.24 589.39,57.63 581.3,57.63 "/>
    <path fill="#FEFEFE" d="M915.91 81.91c-0.69,-1.09 -0.58,-0.02 -0.92,-2.11 -0.16,-0.92 -0.09,-2.01 -0.09,-2.95l-8.09 0 0 33.39 8.09 0c0,-19.8 -2.24,-26.31 13.14,-26.31 0,-3.77 1.69,-12.08 -8.53,-6.51 -2.93,1.59 -2.81,1.51 -3.6,4.49z"/>
    <path fill="#FEFEFE" d="M422.59 81.91l-1.01 -5.06 -8.08 0 0 33.39 8.08 0c0,-19.8 -2.24,-26.31 13.14,-26.31 0,-3.03 0.7,-8.09 -2.02,-8.09 -4.87,0 -9.03,2.02 -10.11,6.07z"/>
   </g>
   <g>
    <path fill="#FEFEFE" d="M747.09 418.83l-20.22 0c1.94,-3.46 1.01,-9.14 1.01,-13.16 8.42,0 14.96,-0.98 21.23,2.03 1.19,4.98 2.5,4.62 -2.02,11.13zm-20.22 -36.43c20.84,0 22.9,-0.38 20.22,11.13 -5.42,2.61 -12.95,2.03 -19.21,2.03l0 -10.12c0,-3.87 0.31,-0.37 -1.01,-3.04zm-14.15 49.58c22.44,0 52.56,4.23 52.56,-19.22 0,-6.26 -3.43,-11.67 -9.09,-12.14l0 -2.03c4.93,-1.32 8.33,-6.91 7.69,-12.81 -0.7,-6.58 -4.3,-10.58 -9.41,-12.79 -10.72,-4.63 -30.08,-0.01 -41.75,-2.73l0 61.72z"/>
    <path fill="#FEFEFE" d="M603.54 396.57l-15.16 0 0 -14.17 12.13 0c15.41,0 12.56,14.17 3.03,14.17zm-30.32 -23.27l0 58.68 15.16 0 0 -24.28c8.77,2.1 3.57,0.63 11.12,0 2.13,4.04 4.79,8.3 7.02,12.19 2.45,4.25 4.48,8.13 7.13,12.09l17.19 0c-1.02,-3.8 -5.95,-9.69 -8.04,-13.2 -2.61,-4.36 -5.37,-8.97 -8.14,-13.11 18.12,-4.22 18.46,-33.32 -6.04,-34.42 -6.11,-0.27 -13.03,0.02 -19.23,0.02 -13.07,0.01 -16.17,-2 -16.17,2.03z"/>
    <path fill="#FEFEFE" d="M528.74 432.99c14.78,0 25.67,-4.72 29.37,-19.17 2.57,-10.05 0.95,-31.16 0.95,-43.56 -4.15,0.35 -2.25,1.01 -6.06,1.01 -11.79,0 -10.11,-8.96 -10.11,24.29 0,18.18 1.48,24.28 -15.16,24.28 -10.02,0 -11.19,-11.61 -11.14,-19.21 0.07,-10.12 0.02,-20.25 0.02,-30.37 -3.03,1.7 -6.85,1.01 -12.13,1.01 -3.87,0 -0.37,0.31 -3.04,-1.01 0,9.8 -1.3,36.37 0.59,43.93 2.82,11.26 13.25,18.8 26.71,18.8z"/>
    <path fill="#FEFEFE" d="M435.73 386.45c0,11.93 5.39,14.55 15.53,17.85 5.19,1.68 22.81,3.27 21.88,10.48 -1.95,3.68 -0.86,3.62 -5.25,4.89 -9.37,2.73 -15.88,-0.09 -20.02,-7.93l-14.13 2.21c2.07,25.23 54.56,25.87 54.56,-0.18 0,-11.31 -5.26,-14.09 -15.01,-17.35 -10.04,-3.35 -21.38,-2.76 -21.38,-9.97 0,-3.61 4.56,-5.06 8.09,-5.06 12,0 9.01,7.08 15.16,7.08 5.61,0 5.99,-1.01 11.12,-1.01 -0.56,-25.24 -50.55,-23.24 -50.55,-1.01z"/>
    <path fill="#FEFEFE" d="M670.26 385.44c1.29,5.55 6.7,16.75 7.08,21.25l-15.17 0c0.97,-4.14 4.63,-18.71 8.09,-21.25zm-33.36 46.54l16.18 0c0.26,-3.18 3.76,-11.71 5.05,-14.16 4.11,0.34 1.87,0.68 5.73,0.57 1.46,-0.04 4.12,-0.28 4.91,-0.33 4.56,-0.29 8.99,-0.24 13.62,-0.24 0.27,3.17 3.76,11.71 5.06,14.16l15.16 0c-0.42,-5.03 -14.66,-37.66 -17.62,-45.1 -1.85,-4.65 -5.23,-10.8 -5.63,-15.61 -4.2,0 -9.05,0.23 -13.16,-0.12 -8.58,-0.75 -4.37,-2.86 -14.71,22.82 -2.7,6.7 -5.09,12.5 -7.39,18.91 -2.42,6.71 -5.53,11.93 -7.2,19.1z"/>
    <path fill="#FEFEFE" d="M803.7 385.44c0.37,4.49 5.78,15.7 7.08,21.25l-15.17 0c0.28,-3.39 5.1,-19.06 8.09,-21.25zm-33.36 46.54l15.16 0c2.47,-4.66 3.71,-9.7 6.07,-14.16 12.62,0 2.8,2.23 23.22,-0.19 1.32,2.64 4.82,11.17 5.08,14.35l16.18 0 -24.26 -60.71c-6.98,0 -11.5,0.32 -17.19,-1.01 -2.14,4.47 -4.17,10.45 -6.06,15.18l-15.04 38.57c-1.24,3.42 -2.37,4.56 -3.16,7.97z"/>
    <path fill="#FEFEFE" d="M906.81 386.45c3.28,2.41 1.03,-0.12 2.71,4.37 1.81,4.86 5.28,12.71 5.38,16.88 -3.41,-1.64 -10.09,-1.01 -15.17,-1.01l7.08 -20.24zm-31.34 45.53l15.17 0c0.81,-3.51 3.55,-14.16 7.07,-14.16l4.32 0.49c4.74,0.15 -1.08,-0.49 3.77,-0.49 4.2,0 1.6,0.68 4.92,0.6 13.87,-0.34 5.13,-3.76 14.28,13.56l15.17 0 -24.26 -60.71c-6.77,0 -10.67,0.28 -16.18,-1.01 -0.99,1.88 -23.81,56.32 -24.26,61.72z"/>
    <path fill="#FEFEFE" d="M848.18 411.74l0 20.24c20.01,0 13.57,3.5 14.08,-17.28 0.17,-6.99 11.64,-23.41 15.18,-29.32 2.74,-4.58 5.67,-9.43 8.14,-14.11l-16.17 0 -6.5 11.72c-1.92,3.24 -5.88,9.27 -6.64,12.57 -2.53,-1.85 -5.68,-8.32 -7.41,-11.82 -2.21,-4.47 -4.46,-8.14 -6.75,-12.47 -5.24,0 -12.55,0.73 -16.17,-1.01 1.94,8.32 22.24,35.8 22.24,41.48z"/>
    <path fill="#FEFEFE" d="M714.74 82.92l0 6.07c0,19.42 26.62,30.68 41.24,14.97 4.48,-4.82 5.26,-10.1 5.26,-19.02l-18.19 0c-3.87,0 -0.37,0.31 -3.04,-1.01l0 8.1c2.23,-0.92 6.32,0 12.13,0 -1.3,15.73 -28.3,18.69 -28.3,-9.11 0,-12.4 7.67,-15.18 17.18,-15.18 7.64,0 8.01,7.44 10.11,7.09l8.06 -1.19c-1.54,-18.95 -44.45,-21.33 -44.45,9.28z"/>
    <path fill="#FEFEFE" d="M646 80.9l0 -4.05 -7.08 0 0 33.39 7.08 0c0,-17.22 -2.53,-29.73 12.13,-26.31 1.91,8.18 1.01,17.79 1.01,26.31l8.09 0c0,-8.24 -2.38,-27.32 8.09,-27.32 7.56,0 5.05,15.46 5.05,27.32l8.09 0c0,-16.34 3.17,-31.3 -8.67,-33.86 -6.77,-1.46 -9.77,2.98 -13.57,5.53 -2.24,-3.34 -4.41,-5.6 -9.2,-5.76 -5.71,-0.19 -7.61,2.47 -11.02,4.75z"/>
    <path fill="#FEFEFE" d="M378.11 94.05c0,-14.92 18.2,-14.43 18.2,-1.01 0,16.31 -18.2,13.33 -18.2,1.01zm-8.08 0c0,9.44 6.58,17.2 16.17,17.2 4.76,0 7.24,-3.14 10.11,-5.06l0 4.05 8.09 0 0 -33.39 -8.09 0 0 5.06c-3.96,-2.9 -0.58,-3.55 -7.12,-5.11 -3.82,-0.91 -6.68,-0.58 -10.04,1.06 -5.33,2.61 -9.12,8.29 -9.12,16.19z"/>
    <path fill="#FEFEFE" d="M558.05 104.17c-16.11,0 -10.77,-21.25 -2.02,-21.25 13.07,0 10.28,21.25 2.02,21.25zm-18.19 -14.17c0,9.15 1.48,21.25 14.15,21.25 5.5,0 7.91,-2.91 11.12,-5.06l0 4.05 8.09 0c0,-6.42 -1.02,-8.45 -1.02,-15.18l0 -18.21 -7.07 0 0 4.05c-4.92,-3.3 -7.57,-6.87 -15.76,-3.66 -4.25,1.66 -9.51,7.4 -9.51,12.76z"/>
    <path fill="#FEFEFE" d="M614.66 104.17c-8.27,0 -10.11,-1.65 -10.11,-12.14 0,-12 17.19,-13.09 17.19,2.02 0,4.27 -3.15,10.12 -7.08,10.12zm-18.19 -14.17c0,9.83 1.5,21.25 14.15,21.25 5.5,0 7.91,-2.91 11.12,-5.06l0 4.05 7.07 0 0 -33.39 -7.07 0 -1.01 5.06c-1.53,-5.73 -8.81,-6.72 -14.71,-4.66 -4.27,1.5 -9.55,7.51 -9.55,12.75z"/>
    <path fill="#FEFEFE" d="M874.46 95.06c0,-16.96 17.19,-15.76 17.19,-2.02 0,16.91 -17.19,12.66 -17.19,2.02zm-8.09 -3.03l0 5.06c0,11.8 17.85,19.03 27.6,10.42 11.51,-10.15 5.35,-31.93 -10.3,-31.54 -9.11,0.23 -17.3,6.75 -17.3,16.06z"/>
    <path fill="#FEFEFE" d="M775.39 94.05c0,-13.95 18.2,-16.47 18.2,1.01 0,11.76 -18.2,13.2 -18.2,-1.01zm-8.08 -1.01c0,24.16 34.37,24.58 34.37,0 0,-22.36 -34.37,-22.33 -34.37,0z"/>
    <path fill="#FEFEFE" d="M441.8 97.09c0,19.49 30.33,19.15 30.33,0l0 -20.24 -7.08 0c0,21.77 2.6,27.32 -10.11,27.32 -7.38,0 -5.05,-17.57 -5.05,-27.32l-8.09 0 0 20.24z"/>
    <path fill="#FEFEFE" d="M509.53 85.96c0,13.65 18.2,8.39 18.2,15.17 0,4.33 -9.95,7.17 -12.13,-1.01 -4.45,0.1 -3.15,0.69 -7.08,1.01 3.28,14.12 26.28,13.37 26.28,-1.01 0,-13.09 -20.56,-7.45 -17.18,-15.18 1,-2.49 -0.4,-0.91 1.96,-2.21 4.91,-2.71 7.08,2.23 8.15,4.24 2.92,-1.41 4.14,-0.62 7.07,-2.03 -2.08,-3.94 -4.62,-8.97 -13.02,-8.77 -2.64,0.06 -6.43,1.17 -8.3,2.61 -1.66,1.28 -3.95,4.54 -3.95,7.18z"/>
    <path fill="#FEFEFE" d="M479.2 85.96c0,14.24 15.52,6.12 18.2,16.18 -4.15,4.39 -10.34,4.68 -12.13,-2.02 -3.99,0 -4.1,0.32 -7.08,1.01 3.5,15.04 26.29,12.64 26.29,-1.01 0,-12.54 -15.78,-6.1 -18.2,-15.18 1.21,-1.27 1.26,-1.79 3.66,-2.52 2.54,-0.76 2.59,-0.5 4.32,0.5 5.25,3.01 -1.63,3.04 9.2,3.04 -1.15,-13.95 -24.26,-12.16 -24.26,0z"/>
   </g>
   <path fill="#FEFEFE" d="M340.71 102.14l-12.13 0 0 -34.4c13.78,0 25.27,-1.06 25.27,18.22 0,7.87 -5.45,16.18 -13.14,16.18zm-21.23 8.1c13.85,0 26.97,2.01 35.66,-5.8 15.49,-13.93 6.58,-43.78 -10.39,-43.78l-25.27 0 0 49.58z"/>
  </g>
  <path fill="#D9C81B" d="M291.76 135.02c-1.57,5.71 1.11,4.84 -3.61,7.6l1.21 2.17c3.9,5.97 4.8,3.29 7.98,7.28l0.92 -0.08c2.42,-2.14 0.06,-1.44 3.78,0.09 4.5,1.86 3.82,5.27 12.38,5.71 -2.19,-4.06 -2.56,-4.93 -7.27,-7.08 0.99,-2.75 4.85,-1.84 1.22,-2.03 -0.94,-2.27 -0.48,-0.27 -0.64,-3.89 -1.57,-2.89 -1.22,-1.75 -3.84,-3.8 -3.62,-2.84 -1.86,-0.64 -3.56,-3.59 -3.81,1.87 -2.01,4.44 -3.18,1.61 -0.06,-0.14 -0.33,0.09 -0.5,0.1l0.67 -6.81c-5.25,1.59 0.48,-0.22 -3.06,1.54 -0.63,0.31 -0.49,0.59 -2.5,1.18z"/>
  <path fill="#DCC511" d="M223.48 31.03c0.23,0.13 0.6,0.06 0.69,0.39 0.1,0.33 0.55,0.32 0.68,0.41 2.46,1.82 0.36,0.18 1.68,1.39l0.74 0c0.94,-2.76 1.72,-1.98 4.56,-2.22l0.42 0.2c2.07,0.58 2.25,1.03 4,0.1l2.06 -3.37c0.1,-0.15 0.32,-0.43 0.47,-0.66l-5.89 -10.47c-0.82,-1.34 -0.79,-1.2 -1.35,-1.82 -4.85,5.08 -6.87,7.92 -8.06,16.05z"/>
  <path fill="#FEFEFE" d="M316.74 251.93c7.89,4.04 18.01,-8.82 21.75,-14.42 3.17,-4.75 3.86,-6.97 5.89,-13.26 1.22,-3.77 2.5,-8.53 2.23,-12.85 -0.3,-4.76 -0.92,-3.98 -1.15,-4.4 -0.95,4.84 -1.1,10.32 -2.93,15.29 -9.77,26.64 -17.54,24 -25.79,29.64z"/>
  <path fill="#47551C" d="M342.73 198.68c0.56,-0.97 1.96,1.33 0.62,-2.96l-2.48 -5.55c-1.21,-3.86 0.45,-1.33 -2.18,-3.21 -1.8,4.58 0.9,9.69 4.04,11.72z"/>
  <path fill="#F2F3D9" d="M243.31 300.63c2.75,-0.55 4.25,-0.91 6.11,-2.08 -0.19,-1.2 -0.16,-1.96 -0.6,-3.27 -0.53,-1.58 -0.89,-1.73 -1.35,-2.43 -3.26,3.31 -4.01,0.11 -4.16,7.78z"/>
  <path fill="#222A16" d="M347.61 260.58c2.49,-1.12 1.75,-0.63 3.24,-2.71 0.89,-1.25 1.49,-2.52 2.04,-3.96l-2.62 -1.93c-1.11,6.85 -0.67,2.57 -2.66,8.6z"/>
  <path fill="#B0AC29" d="M295.05 186.12c1.26,1.05 1.33,1.43 2.82,-0.07 -1.14,2.18 -1.44,1.83 -0.63,2.84 1.91,-0.61 1.65,1.07 2.89,-5.66 -3.98,0.99 -2.25,0.11 -5.08,2.89z"/>
  <path fill="#E8D824" d="M247.03 310.05c-3.21,-0.19 -1.41,-0.13 -2.41,1.53 2.02,1.52 -2.99,1.17 3.09,1.27 4.94,0.08 2.48,-0.84 3.13,-1.27 -0.67,-0.44 -0.1,-1.3 -3.81,-1.53z"/>
  <path fill="#ECDA1B" d="M236.98 293.44c-1.81,2 -1.49,2.38 -2.18,6.06l3.5 -0.3c0.02,-2.53 -0.35,-3.19 -1.32,-5.76z"/>
  <path fill="#1A261A" d="M354.33 242.78l3.03 0 0.77 -5.93c-3.62,2.03 -2.72,1.84 -3.8,5.93z"/>
  <path fill="#FEFEFE" d="M275.11 362.01l-90.12 0.26c2.49,-5.85 4.27,-0.79 7.17,-7.76 -8.99,3.77 -8.93,8.14 -21.24,3.74 4.08,-3.44 12.97,-3.9 21.8,-13.72 2.82,-3.14 5.32,-5.6 7.92,-9.23 1.82,-2.56 4.34,-8.59 7.1,-11.07 4.96,-1.34 38.25,-0.48 46.04,-0.05l3.61 5.06c6.15,9.88 15.9,21.58 26.18,26.32 4.26,1.96 3.69,0.04 5.99,4.2 -5.45,-0.96 -10.3,0.44 -14.31,-1.87 -3.51,-2.01 -5.42,-5.09 -8.75,-6.33 1.31,3.63 6.28,7.98 8.61,10.45zm-55.73 -46.49l9.48 0 -0.06 5.84 -9.71 -0.48 0.29 -5.36zm-9.77 0.42l7.96 -0.47 -0.03 5.57 -9 0.1 1.07 -5.2zm21.13 -0.18l20 -0.24 2.26 6.2c-7.84,-0.9 -17.67,0.58 -22.13,-2.05l-0.13 -3.91zm13.88 -4.18c1,-1.66 -0.8,-1.72 2.41,-1.53 3.71,0.23 3.14,1.09 3.81,1.53 -0.65,0.43 1.81,1.35 -3.13,1.27 -6.08,-0.1 -1.07,0.25 -3.09,-1.27zm-32.23 -13.23c6.44,2.63 3.33,2.63 4.17,14.22l-5.51 0.03 1.34 -14.25zm13.25 1.67l2.9 12.49 -9.69 0.21c0.59,-3.08 1.46,-8.57 3.31,-10.36 1.75,-1.71 0.99,-1.12 3.48,-2.34zm18.52 1.66l5.12 -0.55 0.75 7.17c-5.87,-0.1 -5.69,-3.92 -5.87,-6.62zm-2.22 10.98l-9.6 0.12 1.41 -4.08c0.04,-1.1 -1.12,-0.5 -0.27,-7.44l6.15 -0.13 2.31 11.53zm-4.96 -19.22c0.97,2.57 1.34,3.23 1.32,5.76l-3.5 0.3c0.69,-3.68 0.37,-4.06 2.18,-6.06zm6.33 7.19c0.15,-7.67 0.9,-4.47 4.16,-7.78 0.46,0.7 0.82,0.85 1.35,2.43 0.44,1.31 0.41,2.07 0.6,3.27 -1.86,1.17 -3.36,1.53 -6.11,2.08zm-5.63 -131.07c-0.35,15.16 4.11,118.58 2.12,122.36 -3.54,-4.04 1.59,-2.63 -3.21,-4.49 -3.57,1.97 -3.39,5.1 -4.16,9.98 -1.71,10.94 -0.51,7.78 -3.01,9.2l1.23 -134.46 7.03 -2.59zm-125.08 101.1c1.09,-5.73 12.49,-17.04 16.31,-20.29 3.43,-2.92 6.55,-5.39 11.23,-8.04 9.46,-5.36 9.29,4.77 12.34,-1.72 -1.73,-0.81 -7.69,-1.79 -9.69,-2.54 7.92,-0.37 10.05,-2.49 16.81,-2.03 6.55,0.44 9.47,3.3 12.76,6.93l1.26 -6.37c4.29,0.32 9.27,0.35 12.69,1.82 4.67,2.02 3.61,3.2 5.8,7.41 2.25,-2.96 1.92,-6.19 1.4,-9.15 19.6,0.31 16.13,22.77 16.65,28.57 -5.78,-1.6 -4.5,-5.03 -24.04,-10.09 -8.81,-2.28 -20.4,-3.25 -29.39,-3.23 -9.29,0.02 -19.32,2.51 -26.35,5.87 14.61,-2.14 43.51,-7.33 59.54,-0.8l19.71 9.63 -0.25 8.62c-8,-2.79 -13.65,-7.83 -21.43,-11.07 -27.22,-11.37 -52.55,-6.39 -75.35,6.48zm68.44 -60.08c-0.21,-0.2 -0.46,-0.5 -0.59,-0.63l-2.05 -1.97c-0.14,-0.12 -0.4,-0.25 -0.53,-0.37 -3.54,-3.23 -2.04,-2.67 -2.34,-4.29 5.89,-2.26 5.87,1.95 5.51,7.26zm39.07 -35.22c1.22,10.36 -2.22,120.52 -3.74,122.76 -1.31,-2.34 -0.57,-3.53 -0.24,-5.9l-3.77 -1.89 3.08 -114.3 4.67 -0.67zm9.37 -2.64c-0.11,15.05 -0.77,122.22 -3,126.89 -0.05,-0.17 -0.05,-0.43 -0.07,-0.52 -0.01,-0.08 -0.05,-0.42 -0.06,-0.53 -0.6,-4.3 -0.48,-5.79 -2.83,-7.94 -2.82,1 -2.38,0.55 -3.17,3.76 2.85,1.44 -0.88,0.22 1.68,0.16 1.42,-0.03 -0.24,-0.52 0.77,-0.16 -1.55,1.51 -0.7,0.47 -1.79,2.49l-1.69 3.53c-0.02,-1.07 1.38,-122.08 3.11,-125.98l7.05 -1.7zm70.65 10.51c-1.24,6.73 -0.98,5.05 -2.89,5.66 -0.81,-1.01 -0.51,-0.66 0.63,-2.84 -1.49,1.5 -1.56,1.12 -2.82,0.07 2.83,-2.78 1.1,-1.9 5.08,-2.89zm-133.66 5.77l-0.77 -4.68 4.17 -0.14c1.3,1.78 0.92,-1.9 1.25,3.76 0.17,-0.17 0.37,-0.49 0.48,-0.53 1.63,-0.5 1.53,-0.18 2.85,0.73 -2.63,1.5 -1.04,0.95 -2.22,2.33l0.5 8.81c-4.01,-0.38 -4.41,-0.76 -6.45,-3.5 -3.69,-4.98 -10.87,-14.9 -7.53,-21.38 2.24,2.99 4.69,10.52 5.79,14.39l1.93 0.21zm74.1 36.58c-0.08,-11.49 -0.98,-22.87 -0.99,-34.4 -0.02,-17.29 -3.9,-26.32 5.69,-25.79l3.56 127.73c-2.55,0.29 -4.17,0.88 -6.26,1.89 -1.14,-22.65 -1.83,-46.57 -2,-69.43zm-75.22 -42.96c0.03,-0.16 0.17,-0.38 0.19,-0.44l0.49 -1.96c0.16,-2.25 -0.62,-4.03 0.81,-7.11 1.33,-2.86 -0.2,0.38 1.65,-2.44 2.43,-3.7 1.19,-4.04 2.62,-6.51 1.48,-2.54 4.57,-2.94 5.84,-2.3 0,0 8.62,10.62 -2.95,10.04 -0.75,5.21 -1.77,5.26 -2.04,10.36 -6.43,-3.59 -2.26,0.1 -6.61,0.36zm22.67 -15.61c-2.68,-1.21 -12.4,-10.92 -14.95,-14.13 6.61,-7.12 13.02,2.28 16.01,6.96 3.88,6.09 6.99,8.06 11.81,13.86 -4.34,0.44 -7.77,-0.34 -10.8,-2.05 -0.36,1.27 0.66,2.07 -0.26,3.84l-3.65 -3.46c0.44,-4.06 0.28,-1.91 1.84,-5.02zm28.35 -28.44l-23.25 -9.11c2.57,-9.61 14.78,-17.01 24.26,-19.22 0,10.37 -1.01,17.44 -1.01,28.33zm-30.46 -24.7c7.59,-1.5 20.51,-14.22 30.96,-11.22 1.38,5.96 -1.09,4.54 -6.53,6.67 -21.16,8.27 -16.93,13.19 -21.53,16.13l-2.9 -11.58zm11.32 -26.08c7.68,0.34 6.01,2.93 11.9,5.4 5.47,2.3 8.34,0.43 7.76,7.5 -10.38,0.83 -7.04,-0.35 -16.86,4.34 -2.78,1.32 -5.2,2.44 -8.16,3.95 -1.76,0.89 -2.34,1.29 -3.71,2.37l-3.31 2.67c-1.16,-3.56 -2.7,-6.4 -5.14,-9.61 -3.84,-5.04 -4.03,-3.5 -6.49,-7.67 6.53,-6.7 12.16,-9.47 24.01,-8.95zm7.05 0.19c0.71,-5.63 7.99,-10.98 13.1,-11.91l-0.03 17.94c-4.51,-1.34 -10.2,-3.13 -13.07,-6.03zm-23.24 122.6c1.42,1.61 2.21,3.19 2.54,5.45 -22.14,-0.47 -33.69,-27.82 -44.29,-40.8 -7.06,-8.64 -6.23,-14.19 -2.38,-27.12 1.53,-5.15 3.37,-7.55 4.57,-11.43 -2.84,2.46 -5.36,6.35 -6.93,11.04l-2.79 10.48c-0.1,0.32 -0.5,1.37 -0.59,1.59l-0.72 1.58c-4.41,-1.08 -6.96,-3.34 -10.89,-3.26 5.28,3.56 11.81,5.68 12.41,8.01 1.08,4.22 -1.47,3.56 -1.7,3.77 -4.26,-4.37 0.53,-2.02 -6.06,-4.83l-6.59 -3.72c-3.78,-1.91 -7.14,-8.1 -8.73,-12.77l9.65 2.34c0.46,-0.62 4.2,-15.79 5.11,-19.1 8.98,-32.47 16.71,-16.75 21,-29.59 2.5,-7.45 -0.63,-15.87 -2.35,-21.8 7.07,0.76 16.48,7.46 22.17,11.91 3.19,2.5 2.86,2.78 5.31,5.9 6.26,7.97 14.27,13.13 16.3,28.15 -8.36,-1.26 -8.08,-15.28 -20.7,-18.59 2.55,3.59 10.68,10.79 11.29,14.11 -5.63,-1.13 -12.45,-6.11 -17.9,-3.57l22.79 10.5c8.64,3.5 13.13,6.19 22.93,9.42 24.07,7.94 23.28,11.86 35.92,20.1 1.27,0.82 2.35,1.26 3.87,2.48 -13.06,9.98 -27.03,12.66 -42.94,10.93 1.14,-4.25 5.22,0.29 -2.66,-5.28 -10.02,-7.07 -12.72,-30.72 -33.05,-9.9 -5.46,5.59 -4.77,8.6 -6.55,17.64l-1.37 -5.14c1.02,-16.68 15.48,-23.53 17.05,-25.3 -13.26,1.66 -19.32,20.25 -19.87,29.29 -0.45,7.29 2.37,13.91 5.87,19.12l10.12 14.17c1.59,-4.02 -0.3,-2.34 1.41,-2.63 1.2,0.87 6.9,7.41 8,8.52l0.75 -1.67zm64.86 -118.55c0.66,-4.99 2.07,-3.48 6.46,-6.51 5.37,-3.71 14.11,-15.26 18.23,-21.18 6.91,-9.93 13.67,-22.35 23.82,-29.65 -1.37,5.45 -6.36,14.04 -8.74,20.42 -4.7,12.63 -2.66,14.7 -8.76,18.89 4.32,1.71 2.45,6.97 2.19,11.96 -1,18.78 8.47,21.24 13.06,26.51 -10.66,3.81 -15.06,2.89 -23.81,-1.61 -4.65,-2.39 -15.23,-10.15 -16.7,-13.77 2.82,-2.55 7.07,-3.57 10.76,-4.39 -6.79,-1.11 -11.96,4 -16.51,-0.67zm-9.65 -60.73l3.93 -0.95 4.52 127.81c-4.02,-4.91 -4.66,-2.74 -4.98,-11.44 -0.74,-19.99 -1.05,-101.85 -4.3,-108.61l3.2 114.12c-3.49,-1.95 -0.99,-1.05 -4.28,-3.37 -1.18,-0.83 -2.35,-1.41 -4,-1.92l1.91 -115.74 -0.42 -0.2 -3.33 114.07c-3.74,-1.81 -3.6,1.74 -3.16,-11.56l1.93 -100.29 -0.74 0c-2.24,16.03 -0.73,103.27 -3.71,108.9 -5.08,-2.82 -2.72,-14.76 -2.42,-26.83 0.61,-24.85 1.16,-61.43 3.08,-84.26 1.19,-8.13 3.21,-10.97 8.06,-16.05 0.56,0.62 0.53,0.48 1.35,1.82l5.89 10.47c-0.15,0.23 -0.37,0.51 -0.47,0.66l-2.06 3.37zm64.02 326.82c-4.15,-5.98 -0.96,-1.34 -5.05,-3.03 -15.92,-2.52 -16.62,-7.28 -21.23,-14.17 2.26,0 4.25,-0.15 6.28,-0.25 1.24,-0.06 2.98,0.13 4.84,-0.76 -1.29,-4.85 -0.56,-1.6 -3.23,-3.87 -0.12,-0.11 -0.38,-0.29 -0.5,-0.39l-1.21 -1.14c-0.6,-0.69 0.33,2.7 -1.12,-1.68 0.91,-1.85 0.78,-1.27 1.01,-4.05 4.7,-0.11 5.02,-0.12 6.06,-4.05 -2.81,-1.35 -1.95,-1.01 -6.06,-1.01 1.51,-2.27 2.04,-2.55 3.74,-5.36 5.1,-8.44 3.01,-8.38 7.93,-10.27 2.35,-0.91 4.51,-1.44 6.89,-2.21 5.09,-1.66 9.42,-2.45 13.79,-4.42 4.66,-2.09 7.88,-4.32 13.13,-6.07 -0.14,-4.41 0.24,-0.16 1.59,-5.86l2.32 -4.45c-5.32,1.77 -3.15,4.3 -7.63,7.63 -6.59,4.88 -25.61,11.62 -33.38,12.24l-0.88 -8.71c16.96,-6.37 18.2,-4.51 34.28,-16.73 2.78,-2.11 4.26,-3.88 6.58,-5.59 7.73,-5.7 14.03,-13.2 16.32,-23.55l0.34 1.29c0.68,2.59 -0.31,-0.44 0.48,1.85l1.99 3.72c0.28,-8.84 1.02,-5.69 -0.37,-7.21 -0.1,-0.11 -0.4,-0.3 -0.5,-0.39l-1.27 -0.78c1.27,-5.17 2.95,-7.13 -3.22,-7.66l1.42 1.92c0.95,1.65 1.52,-3.17 0.69,3.05 -0.23,1.71 -6.72,16.65 -9.06,17.67 -3.88,6.3 -15.14,14.68 -21.87,19.37 -3.56,2.47 -9.15,4.93 -13.23,7.04 -9.92,5.13 -9.5,2.45 -12.52,6.25 -4.11,-3.19 -4.33,-6.12 -12.96,-9.8 0.18,0.26 0.43,0.55 0.58,0.72l3.46 3.36c7.53,6.78 9.49,14.9 3.3,23.76 -3.42,4.89 -3.58,4.39 -9.97,4.38l2.72 2.71c-2.29,-0.37 -3.23,-1.05 -4.82,-2.06 3.36,5.45 4.29,1.79 5.13,7.25 0.55,3.59 -1.09,7.03 0.52,10.57 -16.12,1.96 -17.46,-16.92 -22.86,-25.8l2.14 -2.02c2.44,-4.04 -7.04,-18.94 -2.64,-26.86 0.1,-0.19 14.05,-12.81 22.68,-12.27l-2.93 -3.23c-11.19,3.83 -15.25,9.36 -20.27,11.15l-0.11 -24.41c7.9,-3.53 12.53,-5.82 22.49,-3.15 3.6,0.96 8.39,4.31 2.81,6.96 -0.08,0.04 -2.94,0.92 -3.2,0.99 -2.94,0.81 -3.57,0.66 -5.78,2.06 8.46,0.48 14.36,-1.09 22,-3.15 2.92,-0.79 6.39,-1.5 9.72,-2.42 5.71,-1.57 6.98,-2.19 8.16,-5.19l-12.07 2.84c5.13,-2.7 10.32,-8.61 13.91,-12.86 4.89,-5.8 9.83,-6.18 12.8,-14.68 -9.76,5.37 -10.45,16.8 -26.72,-6.36 -7.72,-10.99 -14.73,-18.99 -2.51,-30.75 1.42,1.69 0.26,2.41 1.01,3.81 6.84,-2 3.68,1.63 9.72,9.75 1.57,2.11 0.93,2.02 5.3,2.74 0.14,0.02 0.44,0.1 0.59,0.11 2.54,0.23 0.41,0.7 2.53,-0.28 -2.43,7.15 3.86,7.49 9.15,10.74 2.19,-2.67 1,-3.42 7.49,-3.25 -1.67,0.02 -13.71,-2.25 -15.21,-8.21l5.7 -0.24c6.24,-3.31 -1.93,3.31 1.68,-2.1 -1.79,-2.49 1.69,-2.02 -2.69,-2.02 -2.07,2.18 -0.78,1.28 -3.54,1.83 -0.19,0.03 -0.49,0.05 -0.69,0.07 -6.56,0.61 -13.45,-8.28 -11.59,-14.59 1.64,-5.57 3.53,-1.1 3.69,-8.56 -12.5,2.91 -26.21,12.6 -22.88,27.95 1.19,5.49 6.67,11.49 9.55,15.74 1.81,2.67 3.46,5.66 5.2,7.96 2.07,2.74 0.69,1.12 3.16,2.89 0.18,0.13 0.44,0.28 0.61,0.41l3.35 2.72c-1.73,7.41 -1.32,7.04 -7.42,10.78 -4.16,2.56 -2.04,1.71 -4.56,4.55 -2.17,2.43 -3.41,2.41 -6.22,3.89 -5.2,-3.82 -8.73,-7.45 -16.17,-8.12 -7.76,-0.69 -13.45,-0.8 -19.21,3.06 0,-7.29 -0.2,-12.5 -0.86,-18.36 -1.26,-11.19 -0.17,-43.9 -1.21,-56.46 -1.55,-18.73 -1.38,-38.03 -1.94,-56.74 -0.18,-6.21 -1.04,-11.44 -1.04,-19.19 11.88,7.96 24.83,26.67 46.21,16.91 3.65,-1.66 4.42,-1.29 5.34,-4.77 -2.08,-1.15 -0.42,-0.15 -1.37,-0.42 -27.74,-8.09 -7.64,-57.33 0.35,-73.45 0.95,-1.91 1.59,-3.15 2.63,-5.46l2.44 -5.66c-10.44,0.87 -24.04,20.39 -29.32,28.33 -6.34,9.54 -17.15,25.25 -26.28,31.37 -2.72,-11.69 -0.62,-29.77 -2.61,-42.92 -1.41,-9.39 0.03,-15.51 -3.93,-23.39 -1.96,-3.92 -4,-8.34 -8.62,-9.58 -3.29,2.2 -6.42,6.77 -8.46,10.76 -6.1,11.89 -4.51,37.75 -5.7,51.97 -6.48,0.54 -13.75,5.85 -15.16,11.13 -8.67,0 -28.37,-0.3 -29.32,11.13 -2.62,-0.7 -3.19,-1.75 -5.18,-3.92l-0.98 -1.04c-8.24,-8.2 -16.91,-14.26 -30.23,-14.26 1.99,7.44 6.76,12.78 4.7,22.9 -1.14,5.57 -1.86,5.69 -7.03,7.14 -4.16,1.16 -7.08,3.04 -10.81,3.35 0.81,3.04 -0.01,2.22 3.03,3.03 -0.34,4.07 -5.72,16.31 -7.15,22.19 -0.81,3.35 -1.5,4.4 -2.96,7.15 -2.87,0 -5.67,0.09 -7.98,-1.12l-5.16 -1.91 1.31 6.77c1.64,13.08 12.49,23.89 24.6,28 7.8,2.64 7.47,3.7 11.3,9.94 2.76,4.49 5.42,7.67 8.44,11.79l21.35 21.12c5.7,2.76 11.64,2.75 16.91,2.31 -0.13,-5.79 -5.53,-14.85 -3.04,-20.24 -4.52,0.5 -2.28,0.88 -3.45,1.09l-1.28 0.16c-0.05,0 -2.1,-0.22 -2.34,-0.24l-1.33 -19.63c0.01,-0.18 0.04,-0.48 0.07,-0.65 0.54,-3.18 3.28,-6.22 6.31,-7.03 1.37,5.14 7.98,7.7 13.56,6.5 7.85,-1.7 6.35,-4.95 15.76,-0.43l-1 47.56c0.04,6.79 -1.02,9.26 -1.02,15.17l-4.66 -3.43c-7.74,-6.11 -10.44,-2.94 -15.86,-1.99 -2.47,0.43 -5.88,-1.09 -8.02,-1.43 -8.21,-1.29 -28.04,-2.54 -34.77,0.13 -7.1,2.82 -17.81,11.47 -22.88,16.58 -1.65,1.66 -3.03,2.82 -4.51,4.58 -4.5,5.36 -9.76,12.34 -10.39,19.96 4.09,-0.96 7.57,-3.44 11.25,-4.93 23.59,-9.58 43.65,-12.1 68.48,-2.03 7.11,2.89 15.04,7.78 21.36,12.01 0,11.07 -1.37,17.99 -2.09,28.27 -0.72,10.19 -3.92,15.96 -8.62,22.74 -9.26,13.35 -20.82,23.87 -38.83,23.87 9.98,14.91 49.1,21.05 67.69,21.28 20.56,0.26 48.08,-2.06 64.74,-13.19 2.8,-1.87 4.85,-2.75 8.08,-5.06z"/>
 </g>
</svg>
