<?xml version="1.0" encoding="UTF-8"?>
<!DOCTYPE svg PUBLIC "-//W3C//DTD SVG 1.1//EN" "http://www.w3.org/Graphics/SVG/1.1/DTD/svg11.dtd">
<!-- Creator: CorelDRAW -->
<svg xmlns="http://www.w3.org/2000/svg" xml:space="preserve" width="1352px" height="508px" version="1.1" shape-rendering="geometricPrecision" text-rendering="geometricPrecision" image-rendering="optimizeQuality" fill-rule="evenodd" clip-rule="evenodd"
viewBox="0 0 1352 507.74"
 xmlns:xlink="http://www.w3.org/1999/xlink"
 xmlns:xodm="http://www.corel.com/coreldraw/odm/2003">
 <g id="Layer_x0020_1">
  <metadata id="CorelCorpID_0Corel-Layer"/>
  <path fill="#E92A2D" d="M94.24 168.14c9.62,10.25 46.26,28.1 61.21,36 20.09,10.6 35.17,19.54 29.32,41.96 -1.41,5.4 -4.43,12.94 -9.84,15.07l-0.78 2 -1.04 1.28 -2.67 1.53c-5.03,8.58 -14.03,12.38 -25.08,34.77 -7.19,14.59 -12.85,30.55 -14.22,46.66 0.17,-0.27 0.39,-1.01 0.47,-0.84l11.87 -23.93c13.11,-22.99 33.82,-38.85 52.5,-56.94 31.63,-30.65 36.66,-66.95 -1.03,-92.92 -7.31,-5.04 -14.05,-9.45 -22.49,-14.26 -33.86,-19.32 -32.18,-16.16 -66.9,-43.13 -38.29,-29.74 -44.97,-55.21 -45.37,-100.06 -5.21,5.33 -12.72,34.77 -13.85,40.55 -6.29,32.39 -0.24,59.19 19.59,84.6 4.25,5.46 8.64,9.49 13.15,14.49 2.39,2.65 11.77,11.19 15.16,13.17z"/>
  <path fill="#01AE51" d="M97.77 211.05c1.85,0.86 4.43,1.94 6.36,3.56l45.14 14.09c21.68,7.92 27.09,14.32 25.66,32.47 5.41,-2.13 8.43,-9.67 9.84,-15.07 5.85,-22.42 -9.23,-31.36 -29.32,-41.96 -14.95,-7.9 -51.59,-25.75 -61.21,-36 -5.83,0.97 -35.97,-13.91 -42.49,-17.31 -16.14,-8.41 -24.64,-16.54 -35.71,-26.4 3.49,30.16 28.33,57.95 52.99,72.8 5.08,3.05 22.45,12.51 28.74,13.82z"/>
  <path fill="#E92A2D" d="M196.54 346.75c-2.99,-43.89 39.69,-74.48 34.88,-120.83 -2.7,4.94 -4.84,12.68 -7.43,17.97 -17.86,36.47 -61.25,61.41 -53.82,123.86 5.26,44.19 29.33,71.18 64.15,90.72 7.62,4.28 28.98,12.87 39.14,13.18 -9.21,-7.76 -33.54,-15.9 -54.75,-47.04 -6.6,-9.7 -12.96,-20.8 -16.79,-33.75 -2.77,-9.39 -7.8,-35.03 -5.38,-44.11z"/>
  <path fill="#01AE51" d="M225.27 191.36l1.03 1.85c4.09,10.69 7.26,18.82 5.12,32.71 4.81,46.35 -37.87,76.94 -34.88,120.83 1.86,11.23 5.9,28.21 12.57,34.99 -0.81,-58.9 34.6,-79.82 45.26,-102.37l6.82 -9.48c-2.19,-22.65 -5.54,-25.19 -14.05,-44.07 -6.24,-13.85 -13.78,-25.21 -20.83,-37.35 -2.89,-1.56 -1.73,-0.53 -1.04,2.89z"/>
  <path fill="#222222" d="M253.31 297.37c14.15,-13.85 28.39,-21.18 36.48,-46.87 8.9,-28.26 4.25,-52.12 -8.7,-74.63 -9.76,-16.97 -37.74,-42.85 -30.25,-60.45 4.52,-10.64 22.21,-12.55 34.73,-6.83 11.8,5.4 20.01,20.5 22.82,23.1 4.38,-14.28 -0.12,-31.56 -7.19,-41.39 -9.95,-13.84 -15.12,-13.24 -14.9,-36.85 -2.21,1.25 -0.57,0.25 -2.24,1.6 -8.47,6.82 -9,10.49 -20.37,9.26 -11.07,-1.19 -19.41,-2.72 -30.87,0.13 -41.96,10.45 -49.74,54.49 -35.11,86.19 2.83,6.14 21.84,32.39 26.64,39.74 50.22,77.07 37.31,87.86 28.96,107z"/>
  <path fill="#222222" d="M170.44 265.98c17.29,-9.88 9.44,-23.3 -6.09,-32.3 -22.46,-13.02 -59.58,-22.05 -66.58,-22.63 -8.47,3.88 -43.55,-1.67 -57.01,-8.5 -5.21,-2.64 -10,-7.17 -14.09,-8.45 1.41,5.87 5.59,12.4 8.9,16.73 14.19,18.52 27.43,24.73 52.22,29.12 40.33,7.16 59.34,0 82.65,26.03z"/>
  <path fill="#A67E27" fill-rule="nonzero" d="M439.32 262.19c0,-2.81 -0.38,-5.37 -1.24,-7.67 -0.81,-2.3 -2.34,-4.43 -4.6,-6.44 -2.26,-2 -5.5,-4.01 -9.68,-6.05 -4.22,-2.05 -9.72,-4.18 -16.54,-6.44 -8.02,-2.65 -15.74,-5.67 -23.11,-9.04 -7.42,-3.37 -14.07,-7.33 -19.87,-11.9 -5.84,-4.52 -10.45,-9.85 -13.86,-15.99 -3.45,-6.09 -5.16,-13.26 -5.16,-21.4 0,-7.85 1.75,-14.88 5.24,-21.19 3.5,-6.27 8.4,-11.64 14.71,-16.08 6.27,-4.47 13.65,-7.88 22.18,-10.27 8.48,-2.35 17.78,-3.54 27.84,-3.54 13.35,0 25.07,2.3 35.3,6.91 10.19,4.64 18.17,11.17 23.97,19.61 5.8,8.48 8.7,18.42 8.7,29.93l-43.62 0c0,-4.56 -0.94,-8.61 -2.82,-12.11 -1.87,-3.49 -4.65,-6.27 -8.4,-8.27 -3.75,-1.96 -8.48,-2.98 -14.11,-2.98 -5.5,0 -10.15,0.85 -13.9,2.51 -3.71,1.66 -6.57,3.88 -8.49,6.65 -1.91,2.82 -2.85,5.89 -2.85,9.21 0,2.73 0.77,5.2 2.3,7.42 1.54,2.22 3.75,4.27 6.61,6.18 2.9,1.92 6.39,3.76 10.49,5.5 4.13,1.75 8.78,3.46 13.94,5.12 9.68,3.07 18.25,6.53 25.8,10.32 7.54,3.8 13.9,8.06 19.1,12.88 5.2,4.77 9.17,10.19 11.9,16.28 2.68,6.1 4.05,12.97 4.05,20.6 0,8.19 -1.58,15.43 -4.78,21.75 -3.15,6.35 -7.67,11.68 -13.6,16.07 -5.93,4.35 -13.01,7.67 -21.24,9.89 -8.22,2.26 -17.43,3.41 -27.58,3.41 -9.34,0 -18.51,-1.19 -27.55,-3.58 -9.04,-2.39 -17.22,-6.05 -24.56,-11 -7.33,-4.95 -13.17,-11.3 -17.56,-19.1 -4.35,-7.81 -6.53,-17.06 -6.53,-27.8l43.96 0c0,5.33 0.69,9.85 2.14,13.51 1.4,3.67 3.49,6.57 6.22,8.79 2.73,2.21 6.14,3.79 10.11,4.73 4,0.98 8.61,1.45 13.77,1.45 5.54,0 10.06,-0.81 13.47,-2.43 3.41,-1.62 5.93,-3.8 7.51,-6.48 1.57,-2.73 2.34,-5.72 2.34,-8.96z"/>
  <path id="_1" fill="#A67E27" fill-rule="nonzero" d="M582.88 166.9l-44.34 143.65 -47.11 0 66.85 -181.9 29.85 0 -5.25 38.25zm36.72 143.65l-44.48 -143.65 -5.75 -38.25 30.23 0 67.24 181.9 -47.24 0zm-1.75 -67.84l0 33.85 -93.3 0 0 -33.85 93.3 0z"/>
  <path id="_2" fill="#A67E27" fill-rule="nonzero" d="M753.14 128.65l0 181.9 -43.88 0 0 -181.9 43.88 0zm54.7 0l0 33.86 -152.04 0 0 -33.86 152.04 0z"/>
  <path id="_3" fill="#A67E27" fill-rule="nonzero" d="M971.7 213.37l0 74.71c-3.07,3.41 -7.8,7.03 -14.15,10.91 -6.36,3.88 -14.37,7.17 -24.05,9.94 -9.68,2.73 -21.02,4.13 -34.11,4.13 -12.07,0 -23.03,-1.96 -32.83,-5.84 -9.85,-3.84 -18.3,-9.55 -25.33,-17.1 -7.04,-7.54 -12.45,-16.8 -16.2,-27.71 -3.8,-10.96 -5.72,-23.54 -5.72,-37.69l0 -10.11c0,-14.16 1.92,-26.73 5.76,-37.73 3.84,-11.01 9.21,-20.26 16.16,-27.8 6.95,-7.51 15.18,-13.26 24.65,-17.14 9.42,-3.93 19.82,-5.89 31.16,-5.89 16.72,0 30.32,2.64 40.85,7.93 10.49,5.29 18.42,12.58 23.84,21.87 5.41,9.26 8.69,20 9.89,32.15l-42.13 0c-0.81,-6.01 -2.39,-11.08 -4.69,-15.3 -2.26,-4.22 -5.54,-7.42 -9.81,-9.6 -4.22,-2.21 -9.72,-3.32 -16.45,-3.32 -5.25,0 -10.02,1.11 -14.33,3.37 -4.26,2.26 -7.93,5.62 -10.92,10.19 -2.98,4.52 -5.33,10.19 -6.95,17.05 -1.62,6.82 -2.43,14.8 -2.43,23.96l0 10.37c0,9.08 0.77,17.05 2.31,23.87 1.53,6.83 3.88,12.5 6.99,17.06 3.15,4.52 7.12,7.93 12.02,10.23 4.86,2.3 10.62,3.46 17.27,3.46 4.69,0 8.7,-0.43 12.02,-1.2 3.33,-0.81 6.1,-1.79 8.28,-3.03 2.21,-1.19 3.92,-2.34 5.07,-3.41l0 -28.22 -30.49 0 0 -30.11 74.32 0z"/>
  <path id="_4" fill="#A67E27" fill-rule="nonzero" d="M1074.42 166.9l-44.34 143.65 -47.12 0 66.86 -181.9 29.84 0 -5.24 38.25zm36.71 143.65l-44.47 -143.65 -5.76 -38.25 30.23 0 67.24 181.9 -47.24 0zm-1.75 -67.84l0 33.85 -93.29 0 0 -33.85 93.29 0z"/>
  <path id="_5" fill="#A67E27" fill-rule="nonzero" d="M1265.27 262.19c0,-2.81 -0.38,-5.37 -1.24,-7.67 -0.81,-2.3 -2.34,-4.43 -4.6,-6.44 -2.26,-2 -5.5,-4.01 -9.68,-6.05 -4.22,-2.05 -9.72,-4.18 -16.55,-6.44 -8.01,-2.65 -15.73,-5.67 -23.11,-9.04 -7.41,-3.37 -14.07,-7.33 -19.86,-11.9 -5.85,-4.52 -10.45,-9.85 -13.86,-15.99 -3.46,-6.09 -5.16,-13.26 -5.16,-21.4 0,-7.85 1.75,-14.88 5.24,-21.19 3.5,-6.27 8.4,-11.64 14.71,-16.08 6.27,-4.47 13.65,-7.88 22.18,-10.27 8.48,-2.35 17.78,-3.54 27.84,-3.54 13.34,0 25.07,2.3 35.3,6.91 10.19,4.64 18.17,11.17 23.97,19.61 5.79,8.48 8.69,18.42 8.69,29.93l-43.61 0c0,-4.56 -0.94,-8.61 -2.82,-12.11 -1.88,-3.49 -4.65,-6.27 -8.4,-8.27 -3.75,-1.96 -8.48,-2.98 -14.11,-2.98 -5.5,0 -10.15,0.85 -13.9,2.51 -3.71,1.66 -6.57,3.88 -8.49,6.65 -1.92,2.82 -2.85,5.89 -2.85,9.21 0,2.73 0.76,5.2 2.3,7.42 1.53,2.22 3.75,4.27 6.61,6.18 2.9,1.92 6.39,3.76 10.49,5.5 4.13,1.75 8.78,3.46 13.94,5.12 9.68,3.07 18.25,6.53 25.8,10.32 7.54,3.8 13.9,8.06 19.1,12.88 5.2,4.77 9.16,10.19 11.89,16.28 2.69,6.1 4.05,12.97 4.05,20.6 0,8.19 -1.57,15.43 -4.77,21.75 -3.16,6.35 -7.68,11.68 -13.6,16.07 -5.93,4.35 -13.01,7.67 -21.24,9.89 -8.23,2.26 -17.44,3.41 -27.58,3.41 -9.34,0 -18.51,-1.19 -27.55,-3.58 -9.04,-2.39 -17.22,-6.05 -24.56,-11 -7.33,-4.95 -13.17,-11.3 -17.57,-19.1 -4.35,-7.81 -6.52,-17.06 -6.52,-27.8l43.96 0c0,5.33 0.68,9.85 2.13,13.51 1.41,3.67 3.5,6.57 6.23,8.79 2.73,2.21 6.14,3.79 10.1,4.73 4.01,0.98 8.62,1.45 13.78,1.45 5.54,0 10.06,-0.81 13.47,-2.43 3.41,-1.62 5.93,-3.8 7.5,-6.48 1.58,-2.73 2.35,-5.72 2.35,-8.96z"/>
  <polygon fill="#A67E27" fill-rule="nonzero" points="368.16,333.52 368.16,422.04 346.89,422.04 346.89,333.52 "/>
  <path id="_1_30" fill="#A67E27" fill-rule="nonzero" d="M404.45 333.52l0 88.52 -21.35 0 0 -88.52 21.35 0zm52.8 0l-34.27 44.86 -20.07 21.95 -3.88 -19.56 12.82 -19.46 19.09 -27.79 26.31 0zm-25.21 88.52l-22.86 -39.88 16.6 -12.22 31.47 52.1 -25.21 0z"/>
  <path id="_2_31" fill="#A67E27" fill-rule="nonzero" d="M498.04 392.01l-21.99 0 0 -16.47 21.99 0c3.01,0 5.44,-0.52 7.31,-1.51 1.86,-1.02 3.23,-2.43 4.1,-4.24 0.88,-1.8 1.31,-3.84 1.31,-6.12 0,-2.43 -0.43,-4.67 -1.31,-6.74 -0.87,-2.06 -2.24,-3.74 -4.1,-5 -1.87,-1.29 -4.3,-1.93 -7.31,-1.93l-13.96 0 0 72.04 -21.35 0 0 -88.52 35.31 0c7.1,0 13.22,1.31 18.34,3.9 5.13,2.6 9.07,6.15 11.81,10.67 2.76,4.52 4.15,9.67 4.15,15.48 0,5.7 -1.39,10.68 -4.15,14.94 -2.74,4.25 -6.68,7.57 -11.81,9.94 -5.12,2.38 -11.24,3.56 -18.34,3.56z"/>
  <path id="_3_32" fill="#A67E27" fill-rule="nonzero" d="M554.39 333.52l17.39 0 19.75 61.59 19.75 -61.59 17.39 0 -30.08 88.52 -14.11 0 -30.09 -88.52zm-10.58 0l17.99 0 3.36 67.85 0 20.67 -21.35 0 0 -88.52zm77.45 0l18.06 0 0 88.52 -21.42 0 0 -20.67 3.36 -67.85z"/>
  <path id="_4_33" fill="#A67E27" fill-rule="nonzero" d="M729.51 398.51c0,-1.37 -0.19,-2.62 -0.6,-3.74 -0.4,-1.12 -1.14,-2.15 -2.24,-3.13 -1.1,-0.97 -2.68,-1.95 -4.71,-2.95 -2.06,-0.99 -4.73,-2.03 -8.05,-3.13 -3.9,-1.28 -7.66,-2.76 -11.25,-4.4 -3.61,-1.64 -6.85,-3.57 -9.67,-5.79 -2.84,-2.2 -5.08,-4.79 -6.74,-7.78 -1.68,-2.96 -2.51,-6.45 -2.51,-10.41 0,-3.82 0.85,-7.24 2.55,-10.31 1.7,-3.05 4.09,-5.67 7.16,-7.83 3.05,-2.17 6.64,-3.83 10.79,-5 4.13,-1.14 8.65,-1.72 13.55,-1.72 6.49,0 12.2,1.12 17.18,3.36 4.95,2.26 8.83,5.44 11.66,9.55 2.82,4.13 4.23,8.96 4.23,14.56l-21.23 0c0,-2.22 -0.45,-4.19 -1.37,-5.89 -0.91,-1.7 -2.26,-3.05 -4.08,-4.03 -1.83,-0.95 -4.13,-1.45 -6.87,-1.45 -2.68,0 -4.94,0.42 -6.76,1.23 -1.81,0.8 -3.2,1.88 -4.13,3.23 -0.94,1.37 -1.39,2.87 -1.39,4.48 0,1.33 0.37,2.54 1.12,3.61 0.74,1.08 1.82,2.08 3.21,3.01 1.41,0.94 3.11,1.83 5.11,2.68 2.01,0.85 4.27,1.68 6.78,2.49 4.71,1.49 8.88,3.17 12.55,5.02 3.68,1.85 6.77,3.92 9.3,6.27 2.53,2.32 4.46,4.96 5.79,7.92 1.3,2.97 1.97,6.31 1.97,10.02 0,3.99 -0.77,7.51 -2.33,10.59 -1.53,3.09 -3.73,5.68 -6.61,7.82 -2.89,2.11 -6.33,3.73 -10.34,4.81 -4,1.1 -8.48,1.66 -13.42,1.66 -4.54,0 -9,-0.58 -13.4,-1.74 -4.4,-1.16 -8.39,-2.95 -11.96,-5.36 -3.56,-2.4 -6.41,-5.49 -8.54,-9.29 -2.12,-3.8 -3.18,-8.3 -3.18,-13.53l21.39 0c0,2.6 0.34,4.8 1.04,6.58 0.69,1.78 1.7,3.19 3.03,4.27 1.33,1.08 2.99,1.85 4.92,2.31 1.95,0.47 4.19,0.7 6.7,0.7 2.7,0 4.9,-0.39 6.56,-1.18 1.66,-0.79 2.88,-1.85 3.65,-3.15 0.77,-1.33 1.14,-2.79 1.14,-4.36z"/>
  <path id="_5_34" fill="#A67E27" fill-rule="nonzero" d="M809.89 333.52l21.33 0 0 57.83c0,6.89 -1.43,12.7 -4.32,17.47 -2.88,4.75 -6.91,8.36 -12.1,10.79 -5.18,2.43 -11.28,3.65 -18.29,3.65 -6.93,0 -13.01,-1.22 -18.26,-3.65 -5.25,-2.43 -9.34,-6.04 -12.29,-10.79 -2.94,-4.77 -4.39,-10.58 -4.39,-17.47l0 -57.83 21.39 0 0 57.83c0,3.63 0.52,6.6 1.57,8.9 1.06,2.28 2.6,3.96 4.63,5 2.01,1.06 4.46,1.6 7.35,1.6 2.92,0 5.37,-0.54 7.36,-1.6 1.97,-1.04 3.49,-2.72 4.48,-5 1.02,-2.3 1.54,-5.27 1.54,-8.9l0 -57.83z"/>
  <path id="_6" fill="#A67E27" fill-rule="nonzero" d="M844.58 333.52l34.84 0c6.8,0 12.71,1.02 17.74,3.05 5.04,2.04 8.92,5.03 11.64,8.99 2.73,3.98 4.1,8.88 4.1,14.71 0,5.08 -0.79,9.31 -2.36,12.72 -1.58,3.4 -3.78,6.2 -6.6,8.42 -2.82,2.2 -6.08,4.01 -9.81,5.44l-7 3.94 -29.23 0 -0.13 -16.47 21.65 0c2.71,0 4.95,-0.48 6.74,-1.46 1.78,-0.97 3.13,-2.36 4.04,-4.17 0.92,-1.8 1.37,-3.96 1.37,-6.47 0,-2.55 -0.47,-4.73 -1.41,-6.56 -0.91,-1.82 -2.28,-3.21 -4.08,-4.19 -1.81,-0.97 -4.03,-1.47 -6.66,-1.47l-13.49 0 0 72.04 -21.35 0 0 -88.52zm48.45 88.52l-19.57 -39.15 22.62 -0.13 19.81 38.36 0 0.92 -22.86 0z"/>
  <path id="_7" fill="#A67E27" fill-rule="nonzero" d="M963.3 352.14l-21.58 69.9 -22.92 0 32.53 -88.52 14.52 0 -2.55 18.62zm17.86 69.9l-21.64 -69.9 -2.8 -18.62 14.71 0 32.72 88.52 -22.99 0zm-0.85 -33.01l0 16.47 -45.39 0 0 -16.47 45.39 0z"/>
  <path id="_8" fill="#A67E27" fill-rule="nonzero" d="M1046.69 384.42l-22.78 0 -0.13 -13.98 18.49 0c3.32,0 5.97,-0.38 7.94,-1.15 2,-0.74 3.45,-1.84 4.36,-3.29 0.91,-1.46 1.37,-3.28 1.37,-5.48 0,-2.51 -0.48,-4.55 -1.41,-6.08 -0.93,-1.54 -2.39,-2.66 -4.4,-3.36 -2.01,-0.73 -4.58,-1.08 -7.76,-1.08l-10.43 0 0 72.04 -21.35 0 0 -88.52 31.78 0c5.48,0 10.36,0.5 14.65,1.5 4.32,1 7.97,2.51 10.98,4.52 3.03,2.04 5.33,4.59 6.9,7.64 1.58,3.07 2.37,6.66 2.37,10.79 0,3.61 -0.77,6.99 -2.3,10.14 -1.54,3.18 -4.11,5.73 -7.7,7.7 -3.59,1.97 -8.49,2.99 -14.67,3.07l-5.91 5.54zm-0.85 37.62l-27.1 0 7.28 -16.42 19.82 0c2.92,0 5.27,-0.45 7.03,-1.36 1.76,-0.92 3.03,-2.12 3.82,-3.66 0.79,-1.51 1.18,-3.21 1.18,-5.06 0,-2.28 -0.37,-4.23 -1.12,-5.91 -0.75,-1.66 -1.93,-2.95 -3.55,-3.86 -1.62,-0.91 -3.79,-1.35 -6.51,-1.35l-17.93 0 0.13 -13.98 21.45 0 4.98 5.58c5.93,-0.23 10.62,0.6 14.09,2.49 3.46,1.91 5.93,4.42 7.45,7.55 1.49,3.11 2.24,6.37 2.24,9.77 0,5.81 -1.25,10.64 -3.74,14.53 -2.49,3.9 -6.22,6.82 -11.16,8.75 -4.94,1.95 -11.06,2.93 -18.36,2.93z"/>
  <path id="_9" fill="#A67E27" fill-rule="nonzero" d="M1128.46 352.14l-21.58 69.9 -22.93 0 32.53 -88.52 14.53 0 -2.55 18.62zm17.86 69.9l-21.64 -69.9 -2.8 -18.62 14.71 0 32.72 88.52 -22.99 0zm-0.85 -33.01l0 16.47 -45.4 0 0 -16.47 45.4 0z"/>
  <polygon id="_10" fill="#A67E27" fill-rule="nonzero" points="1182.67,333.52 1198.96,371.95 1215.31,333.52 1238.28,333.52 1209.83,390.25 1209.83,422.04 1188.13,422.04 1188.13,390.25 1159.62,333.52 "/>
  <path id="_11" fill="#A67E27" fill-rule="nonzero" d="M1273.17 352.14l-21.57 69.9 -22.93 0 32.53 -88.52 14.53 0 -2.56 18.62zm17.87 69.9l-21.64 -69.9 -2.8 -18.62 14.71 0 32.72 88.52 -22.99 0zm-0.85 -33.01l0 16.47 -45.4 0 0 -16.47 45.4 0z"/>
 </g>
</svg>
