<?xml version="1.0" encoding="UTF-8"?>
<!DOCTYPE svg PUBLIC "-//W3C//DTD SVG 1.1//EN" "http://www.w3.org/Graphics/SVG/1.1/DTD/svg11.dtd">
<!-- Creator: CorelDRAW -->
<svg xmlns="http://www.w3.org/2000/svg" xml:space="preserve" width="472px" height="709px" version="1.1" shape-rendering="geometricPrecision" text-rendering="geometricPrecision" image-rendering="optimizeQuality" fill-rule="evenodd" clip-rule="evenodd"
viewBox="0 0 472 708"
 xmlns:xlink="http://www.w3.org/1999/xlink"
 xmlns:xodm="http://www.corel.com/coreldraw/odm/2003">
 <g id="Layer_x0020_1">
  <metadata id="CorelCorpID_0Corel-Layer"/>
  <path fill="#E92A2D" d="M131.57 252.11c12.93,13.76 62.14,37.74 82.23,48.35 26.98,14.25 47.24,26.26 39.39,56.37 -1.9,7.26 -5.95,17.38 -13.23,20.24l-1.05 2.69 -1.38 1.72 -3.6 2.05c-6.75,11.53 -18.85,16.63 -33.68,46.72 -9.66,19.59 -17.26,41.03 -19.12,62.68 0.24,-0.36 0.54,-1.36 0.65,-1.13l15.94 -32.15c17.6,-30.88 45.43,-52.19 70.52,-76.49 42.5,-41.18 49.25,-89.94 -1.38,-124.83 -9.82,-6.76 -18.88,-12.68 -30.21,-19.15 -45.49,-25.96 -43.23,-21.71 -89.87,-57.93 -51.44,-39.95 -60.42,-74.17 -60.94,-134.43 -7.01,7.17 -17.11,46.71 -18.61,54.47 -8.45,43.51 -0.32,79.52 26.31,113.66 5.71,7.33 11.61,12.75 17.66,19.46 3.22,3.56 15.81,15.04 20.37,17.7z"/>
  <path fill="#01AE51" d="M136.32 309.75c2.47,1.15 5.95,2.61 8.53,4.78l60.65 18.93c29.12,10.63 36.39,19.23 34.46,43.61 7.28,-2.86 11.33,-12.98 13.23,-20.24 7.85,-30.11 -12.41,-42.12 -39.39,-56.37 -20.09,-10.61 -69.3,-34.59 -82.23,-48.35 -7.83,1.3 -48.33,-18.69 -57.08,-23.25 -21.68,-11.31 -33.1,-22.23 -47.97,-35.48 4.68,40.53 38.06,77.85 71.19,97.8 6.82,4.11 30.15,16.8 38.61,18.57z"/>
  <path fill="#E92A2D" d="M268.99 492.04c-4.01,-58.96 53.32,-100.05 46.85,-162.32 -3.62,6.64 -6.49,17.03 -9.97,24.14 -24,49 -82.29,82.5 -72.3,166.39 7.07,59.36 39.41,95.63 86.18,121.87 10.24,5.75 38.93,17.29 52.57,17.71 -12.37,-10.43 -45.05,-21.36 -73.54,-63.2 -8.86,-13.03 -17.41,-27.93 -22.55,-45.34 -3.73,-12.61 -10.49,-47.05 -7.24,-59.25z"/>
  <path fill="#01AE51" d="M307.59 283.3l1.38 2.49c5.5,14.35 9.76,25.27 6.87,43.93 6.47,62.27 -50.86,103.36 -46.85,162.32 2.5,15.09 7.93,37.89 16.89,47 -1.08,-79.12 46.48,-107.22 60.81,-137.51l9.15 -12.74c-2.93,-30.43 -7.43,-33.83 -18.87,-59.21 -8.38,-18.6 -18.51,-33.86 -27.99,-50.16 -3.87,-2.1 -2.32,-0.72 -1.39,3.88z"/>
  <path fill="#FEFEFE" d="M345.26 425.7c19.01,-18.6 38.14,-28.45 49.01,-62.95 11.95,-37.97 5.7,-70.03 -11.69,-100.27 -13.11,-22.79 -50.7,-57.56 -40.65,-81.19 6.09,-14.3 29.85,-16.87 46.67,-9.18 15.85,7.25 26.88,27.54 30.65,31.03 5.88,-19.19 -0.17,-42.4 -9.66,-55.6 -13.37,-18.6 -20.31,-17.79 -20.02,-49.51 -2.97,1.69 -0.76,0.34 -3.01,2.16 -11.37,9.16 -12.08,14.08 -27.36,12.43 -14.87,-1.6 -26.07,-3.66 -41.46,0.18 -56.37,14.03 -66.83,73.19 -47.17,115.78 3.8,8.24 29.34,43.51 35.78,53.39 67.47,103.53 50.12,118.03 38.91,143.73z"/>
  <path fill="#FEFEFE" d="M233.93 383.53c23.24,-13.26 12.68,-31.29 -8.17,-43.38 -30.18,-17.5 -80.05,-29.63 -89.44,-30.4 -11.39,5.22 -58.52,-2.24 -76.6,-11.42 -6.98,-3.54 -13.42,-9.64 -18.92,-11.36 1.9,7.89 7.51,16.67 11.96,22.48 19.05,24.89 36.84,33.22 70.15,39.13 54.17,9.6 79.71,-0.01 111.02,34.95z"/>
 </g>
</svg>
