<?xml version="1.0" encoding="UTF-8"?>
<!DOCTYPE svg PUBLIC "-//W3C//DTD SVG 1.1//EN" "http://www.w3.org/Graphics/SVG/1.1/DTD/svg11.dtd">
<!-- Creator: CorelDRAW 2018 (64-Bit) -->
<svg xmlns="http://www.w3.org/2000/svg" xml:space="preserve" width="1.77165in" height="1.1811in" version="1.1" style="shape-rendering:geometricPrecision; text-rendering:geometricPrecision; image-rendering:optimizeQuality; fill-rule:evenodd; clip-rule:evenodd"
viewBox="0 0 1771.65 1181.1"
 xmlns:xlink="http://www.w3.org/1999/xlink">
 <defs>
  <style type="text/css">
   <![CDATA[
    .str0 {stroke:#DDAA51;stroke-width:3;stroke-miterlimit:22.9256}
    .fil4 {fill:none;fill-rule:nonzero}
    .fil5 {fill:#FEFEFE}
    .fil6 {fill:#AB5905}
    .fil0 {fill:#AB5905;fill-rule:nonzero}
    .fil3 {fill:#DDAA51;fill-rule:nonzero}
    .fil2 {fill:url(#id0)}
    .fil1 {fill:url(#id1)}
   ]]>
  </style>
  <linearGradient id="id0" gradientUnits="userSpaceOnUse" x1="50.97" y1="509.99" x2="921.92" y2="509.99">
   <stop offset="0" style="stop-opacity:1; stop-color:#00A859"/>
   <stop offset="1" style="stop-opacity:1; stop-color:#B9DFCA"/>
  </linearGradient>
  <linearGradient id="id1" gradientUnits="userSpaceOnUse" x1="574.91" y1="45.4" x2="429.7" y2="878.74">
   <stop offset="0" style="stop-opacity:1; stop-color:#ED3237"/>
   <stop offset="0.690196" style="stop-opacity:1; stop-color:#F0575C"/>
   <stop offset="1" style="stop-opacity:1; stop-color:#F37C81"/>
  </linearGradient>
 </defs>
 <g id="Layer_x0020_1">
  <metadata id="CorelCorpID_0Corel-Layer"/>
  <path class="fil0" d="M478.19 308.14l14.19 0c4.97,0 9.02,1.14 12.15,3.39 3.13,2.26 5.41,5.06 6.86,8.42 1.44,3.36 2.06,6.98 1.84,10.88 -0.21,3.89 -1.15,7.52 -2.81,10.86 -1.66,3.34 -4.02,6.13 -7.09,8.37 -3.07,2.24 -6.75,3.36 -11.04,3.36 -3.25,0 -5.75,-0.54 -7.5,-1.61 -1.75,-1.07 -2.93,-2.36 -3.54,-3.86 -0.61,-1.5 -0.77,-3.09 -0.46,-4.74 0.31,-1.66 0.89,-3.1 1.75,-4.33 0.31,0.67 0.89,1.2 1.75,1.56 0.86,0.37 1.83,0.65 2.9,0.83 1.07,0.19 2.13,0.28 3.17,0.28 1.04,0 1.9,-0.06 2.58,-0.19 1.65,-0.31 3.08,-1.04 4.28,-2.21 1.2,-1.17 2.09,-2.53 2.67,-4.09 0.58,-1.56 0.87,-3.22 0.87,-4.97 0,-1.75 -0.35,-3.36 -1.06,-4.83 -0.7,-1.47 -1.81,-2.68 -3.31,-3.63 -1.5,-0.95 -3.42,-1.43 -5.75,-1.43l-10.4 0 0 52.46 -12.24 0 0 -53.18c0,-3.38 0.77,-6.12 2.31,-8.21 1.55,-2.09 4.17,-3.13 7.89,-3.13z"/>
  <path id="1" class="fil0" d="M529.74 316.79c1.23,-3.25 3.06,-5.61 5.48,-7.09 2.43,-1.47 5.75,-1.84 9.99,-1.11l24.66 64.06 -12.7 0 -4.97 -13.16c-1.84,0 -3.83,-0.02 -5.98,-0.04 -2.15,-0.03 -4.1,0.11 -5.85,0.41 -1.75,0.31 -3.11,0.84 -4.09,1.61 -0.98,0.77 -1.23,1.98 -0.74,3.63 -2.21,-0.61 -3.88,-1.55 -5.02,-2.81 -1.13,-1.26 -1.83,-2.59 -2.07,-4 -0.24,-1.41 -0.09,-2.81 0.46,-4.19 0.55,-1.38 1.38,-2.53 2.48,-3.45 1.04,-0.92 2.22,-1.58 3.54,-1.98 1.32,-0.4 2.7,-0.68 4.14,-0.83 1.44,-0.15 2.9,-0.21 4.37,-0.19 1.47,0.03 2.89,0.05 4.24,0.05l-8.65 -22.09c-1.96,4.97 -3.7,9.4 -5.2,13.3 -1.5,3.89 -2.94,7.61 -4.33,11.13 -1.38,3.53 -2.76,7.09 -4.14,10.68 -1.38,3.59 -2.9,7.56 -4.56,11.92l-12.7 0 21.63 -55.86z"/>
  <path id="2" class="fil0" d="M578.15 317.99c0,-1.29 0.2,-2.52 0.6,-3.68 0.41,-1.17 1.01,-2.21 1.81,-3.13 0.81,-0.92 1.81,-1.64 3.02,-2.17 1.2,-0.52 2.61,-0.78 4.22,-0.78l2.04 0 27.7 42.43 0 -42.43 12.24 0 0 64.42 -11.69 0 -27.7 -42.24 0 42.24 -12.24 0 0 -54.67z"/>
  <path id="3" class="fil0" d="M652.06 372.65l-12.24 0 0 -54.76c0,-3.07 1.12,-5.46 3.34,-7.18 2.22,-1.72 5.19,-2.55 8.9,-2.48l0 64.42z"/>
  <path id="4" class="fil0" d="M662.09 308.32l44.08 0c0,1.89 -0.28,3.57 -0.83,5.06 -0.56,1.5 -1.29,2.76 -2.21,3.8 -0.92,1.03 -1.98,1.83 -3.17,2.36 -1.2,0.55 -2.47,0.83 -3.82,0.83l-7.36 0 0 52.28 -12.43 0 0 -52.28 -14.26 0 0 -12.06z"/>
  <path id="5" class="fil0" d="M727.61 372.65l-12.24 0 0 -54.76c0,-3.07 1.12,-5.46 3.34,-7.18 2.22,-1.72 5.19,-2.55 8.9,-2.48l0 64.42z"/>
  <path id="6" class="fil0" d="M758.35 316.79c1.23,-3.25 3.06,-5.61 5.48,-7.09 2.43,-1.47 5.75,-1.84 9.99,-1.11l24.66 64.06 -12.7 0 -4.97 -13.16c-1.84,0 -3.83,-0.02 -5.98,-0.04 -2.15,-0.03 -4.1,0.11 -5.85,0.41 -1.75,0.31 -3.11,0.84 -4.09,1.61 -0.98,0.77 -1.23,1.98 -0.74,3.63 -2.21,-0.61 -3.88,-1.55 -5.02,-2.81 -1.13,-1.26 -1.83,-2.59 -2.07,-4 -0.24,-1.41 -0.09,-2.81 0.46,-4.19 0.55,-1.38 1.38,-2.53 2.48,-3.45 1.04,-0.92 2.22,-1.58 3.54,-1.98 1.32,-0.4 2.7,-0.68 4.14,-0.83 1.44,-0.15 2.9,-0.21 4.37,-0.19 1.47,0.03 2.89,0.05 4.24,0.05l-8.65 -22.09c-1.96,4.97 -3.7,9.4 -5.2,13.3 -1.5,3.89 -2.94,7.61 -4.33,11.13 -1.38,3.53 -2.76,7.09 -4.14,10.68 -1.38,3.59 -2.9,7.56 -4.56,11.92l-12.7 0 21.63 -55.86z"/>
  <path id="7" class="fil0" d="M829.77 372.65l0 -53.56c0.06,-6.38 3,-10 8.83,-10.86l12.61 0c3.13,0 5.94,0.61 8.42,1.84 2.48,1.23 4.59,2.92 6.31,5.06 1.35,1.66 2.31,3.51 2.9,5.57 0.58,2.06 0.75,4.09 0.5,6.12 -0.24,2.02 -0.9,3.96 -1.98,5.8 -1.07,1.84 -2.59,3.41 -4.56,4.7 2.52,0.98 4.61,2.33 6.3,4.05 1.69,1.72 2.96,3.62 3.82,5.7 0.86,2.09 1.3,4.27 1.33,6.54 0.03,2.27 -0.34,4.46 -1.1,6.58 -0.77,2.11 -1.92,4.08 -3.45,5.89 -1.54,1.81 -3.44,3.26 -5.7,4.37 -2.94,1.47 -7.03,2.21 -12.24,2.21l-22 0zm12.24 -52.64l0 41.05c0.98,0 2.09,0.02 3.31,0.04 1.23,0.03 2.48,0.05 3.78,0.05 1.29,0 2.54,-0.05 3.77,-0.14 1.23,-0.09 2.3,-0.29 3.22,-0.6 2.33,-0.61 3.99,-1.67 4.97,-3.17 0.98,-1.5 1.36,-3.09 1.15,-4.74 -0.22,-1.66 -0.97,-3.22 -2.26,-4.7 -1.29,-1.47 -3.04,-2.45 -5.24,-2.94 -0.68,-0.12 -1.5,-0.23 -2.48,-0.32 -0.98,-0.09 -2.01,-0.09 -3.09,0 -1.07,0.09 -2.07,0.29 -2.99,0.6 -0.92,0.3 -1.59,0.83 -2.03,1.56 -0.74,-1.72 -1.18,-3.3 -1.33,-4.74 -0.15,-1.44 0.06,-2.74 0.64,-3.91 0.58,-1.17 1.59,-2.15 3.04,-2.94 1.44,-0.8 3.39,-1.44 5.84,-1.93 1.54,-0.31 2.81,-1.07 3.82,-2.3 1.01,-1.22 1.52,-2.67 1.52,-4.32 0,-1.78 -0.6,-3.19 -1.8,-4.24 -1.2,-1.04 -2.56,-1.72 -4.09,-2.02 -0.68,-0.12 -1.46,-0.21 -2.35,-0.28 -0.89,-0.06 -1.78,-0.09 -2.67,-0.09 -0.89,0 -1.76,0.01 -2.63,0.04 -0.86,0.03 -1.56,0.05 -2.11,0.05z"/>
  <path id="8" class="fil0" d="M883.52 308.23l12.24 0 0 40.13c0,2.02 0.17,3.88 0.5,5.57 0.34,1.69 0.91,3.13 1.7,4.33 0.8,1.2 1.85,2.13 3.17,2.81 1.32,0.67 2.96,1.01 4.93,1.01 3.99,0 6.84,-1.23 8.56,-3.68 1.72,-2.46 2.57,-5.89 2.57,-10.31l0 -28.72c0,-1.65 0.19,-3.19 0.56,-4.6 0.37,-1.41 1.03,-2.61 1.94,-3.59 0.94,-0.98 2.18,-1.73 3.76,-2.26 1.58,-0.52 3.57,-0.75 5.98,-0.69l0 38.1c0,3.99 -0.33,7.67 -1.01,11.05 -0.67,3.37 -1.89,6.27 -3.65,8.7 -1.75,2.42 -4.13,4.31 -7.15,5.66 -3.01,1.35 -6.81,2.03 -11.43,2.03 -4.62,0 -8.39,-0.68 -11.33,-2.03 -2.96,-1.35 -5.28,-3.24 -6.96,-5.66 -1.7,-2.43 -2.85,-5.31 -3.46,-8.65 -0.61,-3.34 -0.92,-7.04 -0.92,-11.09l0 -38.1z"/>
  <path id="9" class="fil0" d="M951.8 330.5l12.7 -16.29c2.39,-3.43 5.15,-5.55 8.28,-6.35 3.13,-0.8 6.87,-0.7 11.23,0.28l-11.87 15.19 -10.68 13.62 24.76 35.71 -14.54 0 -19.88 -28.71 0 28.71 -12.43 0 0 -64.52 12.43 0 0 22.37z"/>
  <path id="10" class="fil0" d="M1013.37 316.79c1.23,-3.25 3.06,-5.61 5.48,-7.09 2.43,-1.47 5.75,-1.84 9.99,-1.11l24.66 64.06 -12.7 0 -4.97 -13.16c-1.84,0 -3.83,-0.02 -5.98,-0.04 -2.15,-0.03 -4.1,0.11 -5.85,0.41 -1.75,0.31 -3.11,0.84 -4.09,1.61 -0.98,0.77 -1.23,1.98 -0.74,3.63 -2.21,-0.61 -3.88,-1.55 -5.02,-2.81 -1.13,-1.26 -1.83,-2.59 -2.07,-4 -0.24,-1.41 -0.09,-2.81 0.46,-4.19 0.55,-1.38 1.38,-2.53 2.48,-3.45 1.04,-0.92 2.22,-1.58 3.54,-1.98 1.32,-0.4 2.7,-0.68 4.14,-0.83 1.44,-0.15 2.9,-0.21 4.37,-0.19 1.47,0.03 2.89,0.05 4.24,0.05l-8.65 -22.09c-1.96,4.97 -3.7,9.4 -5.2,13.3 -1.5,3.89 -2.94,7.61 -4.33,11.13 -1.38,3.53 -2.76,7.09 -4.14,10.68 -1.38,3.59 -2.9,7.56 -4.56,11.92l-12.7 0 21.63 -55.86z"/>
  <path id="11" class="fil0" d="M1084.79 372.65l0 -53.56c0.06,-6.38 3,-10 8.83,-10.86l12.61 0c3.13,0 5.94,0.61 8.42,1.84 2.48,1.23 4.59,2.92 6.31,5.06 1.35,1.66 2.31,3.51 2.9,5.57 0.58,2.06 0.75,4.09 0.5,6.12 -0.24,2.02 -0.9,3.96 -1.98,5.8 -1.07,1.84 -2.59,3.41 -4.56,4.7 2.52,0.98 4.61,2.33 6.3,4.05 1.69,1.72 2.96,3.62 3.82,5.7 0.86,2.09 1.3,4.27 1.33,6.54 0.03,2.27 -0.34,4.46 -1.1,6.58 -0.77,2.11 -1.92,4.08 -3.45,5.89 -1.54,1.81 -3.44,3.26 -5.7,4.37 -2.94,1.47 -7.03,2.21 -12.24,2.21l-22 0zm12.24 -52.64l0 41.05c0.98,0 2.09,0.02 3.31,0.04 1.23,0.03 2.48,0.05 3.78,0.05 1.29,0 2.54,-0.05 3.77,-0.14 1.23,-0.09 2.3,-0.29 3.22,-0.6 2.33,-0.61 3.99,-1.67 4.97,-3.17 0.98,-1.5 1.36,-3.09 1.15,-4.74 -0.22,-1.66 -0.97,-3.22 -2.26,-4.7 -1.29,-1.47 -3.04,-2.45 -5.24,-2.94 -0.68,-0.12 -1.5,-0.23 -2.48,-0.32 -0.98,-0.09 -2.01,-0.09 -3.09,0 -1.07,0.09 -2.07,0.29 -2.99,0.6 -0.92,0.3 -1.59,0.83 -2.03,1.56 -0.74,-1.72 -1.18,-3.3 -1.33,-4.74 -0.15,-1.44 0.06,-2.74 0.64,-3.91 0.58,-1.17 1.59,-2.15 3.04,-2.94 1.44,-0.8 3.39,-1.44 5.84,-1.93 1.54,-0.31 2.81,-1.07 3.82,-2.3 1.01,-1.22 1.52,-2.67 1.52,-4.32 0,-1.78 -0.6,-3.19 -1.8,-4.24 -1.2,-1.04 -2.56,-1.72 -4.09,-2.02 -0.68,-0.12 -1.46,-0.21 -2.35,-0.28 -0.89,-0.06 -1.78,-0.09 -2.67,-0.09 -0.89,0 -1.76,0.01 -2.63,0.04 -0.86,0.03 -1.56,0.05 -2.11,0.05z"/>
  <path id="12" class="fil0" d="M1175.62 308.23l0 12.06 -24.85 0 0 14.26 24.85 0c-0.06,1.41 -0.28,2.82 -0.64,4.24 -0.37,1.41 -0.95,2.67 -1.75,3.77 -0.8,1.11 -1.83,2.01 -3.09,2.72 -1.26,0.7 -2.81,1.06 -4.65,1.06l-14.72 0 0 14.27 24.85 0 0 12.06 -37.09 0 0 -53.29c0,-3.56 1,-6.3 2.99,-8.24 1.99,-1.93 4.52,-2.9 7.59,-2.9l26.5 0z"/>
  <path id="13" class="fil0" d="M1195.04 308.14l14.08 0c4.48,0 8.22,0.92 11.23,2.76 3.01,1.84 5.31,4.2 6.9,7.06 1.59,2.85 2.5,6.01 2.72,9.49 0.21,3.47 -0.17,6.83 -1.15,10.09 -0.98,3.25 -2.56,6.2 -4.74,8.85 -2.18,2.64 -4.86,4.57 -8.06,5.8l16.11 20.46 -15 0 -17.85 -22.64c-1.35,-1.72 -1.95,-3.62 -1.8,-5.71 0.15,-2.09 0.75,-3.89 1.8,-5.43 0.31,0.67 0.89,1.2 1.75,1.56 0.86,0.37 1.83,0.65 2.9,0.83 1.07,0.19 2.13,0.28 3.18,0.28 1.04,0 1.93,-0.06 2.67,-0.19 1.65,-0.31 3.08,-1.04 4.28,-2.21 1.2,-1.17 2.09,-2.53 2.67,-4.09 0.58,-1.56 0.87,-3.22 0.87,-4.97 0,-1.75 -0.35,-3.36 -1.06,-4.83 -0.7,-1.47 -1.81,-2.68 -3.31,-3.63 -1.5,-0.95 -3.42,-1.43 -5.75,-1.43l-10.4 0 0 52.46 -12.24 0 0 -53.18c0,-3.38 0.77,-6.12 2.3,-8.21 1.54,-2.09 4.17,-3.13 7.92,-3.13z"/>
  <path id="14" class="fil0" d="M1277.69 326.27c-1.17,-2.27 -2.54,-4.02 -4.14,-5.24 -1.59,-1.23 -3.2,-2.06 -4.83,-2.48 -1.63,-0.43 -3.19,-0.49 -4.69,-0.19 -1.5,0.31 -2.74,0.83 -3.73,1.57 -0.98,0.74 -1.59,1.63 -1.84,2.67 -0.25,1.04 0.06,2.12 0.92,3.22 1.17,1.47 2.82,3.08 4.97,4.83 2.15,1.75 4.37,3.6 6.67,5.57 2.3,1.96 4.49,3.99 6.58,6.07 2.09,2.09 3.62,4.2 4.6,6.35 1.22,2.76 1.75,5.66 1.56,8.7 -0.19,3.04 -1.06,5.81 -2.62,8.33 -1.56,2.52 -3.79,4.59 -6.67,6.21 -2.88,1.63 -6.38,2.44 -10.49,2.44 -2.45,0 -4.86,-0.39 -7.22,-1.15 -2.36,-0.77 -4.59,-1.84 -6.67,-3.22 -2.09,-1.38 -4,-3.02 -5.75,-4.92 -1.75,-1.9 -3.21,-4.02 -4.37,-6.35l9.67 -7.09c0.55,1.17 1.26,2.3 2.11,3.41 0.86,1.1 1.81,2.13 2.85,3.08 1.04,0.95 2.13,1.78 3.27,2.48 1.13,0.7 2.22,1.21 3.27,1.52 1.84,0.49 3.57,0.55 5.2,0.19 1.63,-0.37 2.9,-1.06 3.82,-2.07 0.92,-1.02 1.38,-2.27 1.38,-3.78 0,-1.5 -0.7,-3.15 -2.12,-4.92 -1.53,-1.91 -3.59,-3.87 -6.17,-5.89 -2.57,-2.02 -5.12,-4.17 -7.64,-6.44 -2.52,-2.27 -4.69,-4.72 -6.54,-7.36 -1.84,-2.64 -2.76,-5.52 -2.76,-8.65 0,-2.39 0.49,-4.6 1.47,-6.63 0.98,-2.03 2.29,-3.74 3.91,-5.15 1.63,-1.41 3.51,-2.52 5.66,-3.31 2.15,-0.8 4.39,-1.2 6.72,-1.2 2.94,0 5.69,0.41 8.24,1.24 2.55,0.83 4.62,2.01 6.21,3.54 1.17,1.04 2.06,2.21 2.67,3.5 0.61,1.29 0.92,2.59 0.92,3.91 0,1.32 -0.35,2.61 -1.06,3.87 -0.71,1.26 -1.83,2.38 -3.36,3.36z"/>
  <path id="15" class="fil0" d="M1307.59 316.79c1.23,-3.25 3.06,-5.61 5.48,-7.09 2.43,-1.47 5.75,-1.84 9.99,-1.11l24.66 64.06 -12.7 0 -4.97 -13.16c-1.84,0 -3.83,-0.02 -5.98,-0.04 -2.15,-0.03 -4.1,0.11 -5.85,0.41 -1.75,0.31 -3.11,0.84 -4.09,1.61 -0.98,0.77 -1.23,1.98 -0.74,3.63 -2.21,-0.61 -3.88,-1.55 -5.02,-2.81 -1.13,-1.26 -1.83,-2.59 -2.07,-4 -0.24,-1.41 -0.09,-2.81 0.46,-4.19 0.55,-1.38 1.38,-2.53 2.48,-3.45 1.04,-0.92 2.22,-1.58 3.54,-1.98 1.32,-0.4 2.7,-0.68 4.14,-0.83 1.44,-0.15 2.9,-0.21 4.37,-0.19 1.47,0.03 2.89,0.05 4.24,0.05l-8.65 -22.09c-1.96,4.97 -3.7,9.4 -5.2,13.3 -1.5,3.89 -2.94,7.61 -4.33,11.13 -1.38,3.53 -2.76,7.09 -4.14,10.68 -1.38,3.59 -2.9,7.56 -4.56,11.92l-12.7 0 21.63 -55.86z"/>
  <path id="16" class="fil0" d="M1371.93 308.14l15 45 15.09 -45 3.87 0 0.09 0 12.15 0 0 64.43 -12.24 0 0 -40.5 -10.03 29.82c-0.31,0.92 -0.57,1.85 -0.78,2.81 -0.22,0.95 -0.34,1.87 -0.37,2.76 -0.03,0.89 0.09,1.72 0.37,2.48 0.28,0.77 0.78,1.4 1.52,1.89 -1.66,0.86 -3.48,1.3 -5.48,1.33 -2,0.03 -3.64,-0.2 -4.93,-0.69 -1.1,-0.43 -2.1,-1.03 -2.99,-1.8 -0.89,-0.76 -1.67,-1.63 -2.35,-2.57 -0.67,-0.95 -1.24,-1.96 -1.7,-3.04 -0.46,-1.07 -0.87,-2.13 -1.24,-3.17l-9.66 -28.99 0 39.67 -12.24 0 0 -54.76c0,-3.01 0.93,-5.37 2.81,-7.09 1.87,-1.72 4.43,-2.58 7.69,-2.58l5.43 0z"/>
  <path id="17" class="fil0" d="M1448.03 316.79c1.23,-3.25 3.06,-5.61 5.48,-7.09 2.43,-1.47 5.75,-1.84 9.99,-1.11l24.66 64.06 -12.7 0 -4.97 -13.16c-1.84,0 -3.83,-0.02 -5.98,-0.04 -2.15,-0.03 -4.1,0.11 -5.85,0.41 -1.75,0.31 -3.11,0.84 -4.09,1.61 -0.98,0.77 -1.23,1.98 -0.74,3.63 -2.21,-0.61 -3.88,-1.55 -5.02,-2.81 -1.13,-1.26 -1.83,-2.59 -2.07,-4 -0.24,-1.41 -0.09,-2.81 0.46,-4.19 0.55,-1.38 1.38,-2.53 2.48,-3.45 1.04,-0.92 2.22,-1.58 3.54,-1.98 1.32,-0.4 2.7,-0.68 4.14,-0.83 1.44,-0.15 2.9,-0.21 4.37,-0.19 1.47,0.03 2.89,0.05 4.24,0.05l-8.65 -22.09c-1.96,4.97 -3.7,9.4 -5.2,13.3 -1.5,3.89 -2.94,7.61 -4.33,11.13 -1.38,3.53 -2.76,7.09 -4.14,10.68 -1.38,3.59 -2.9,7.56 -4.56,11.92l-12.7 0 21.63 -55.86z"/>
  <path class="fil1" d="M506.74 38.99c29.16,0 57.63,2.95 85.13,8.57 -191.01,4.55 -344.45,160.81 -344.45,352.91 0,194.97 158.06,353.03 353.02,353.03 142.07,0 264.52,-83.93 320.52,-204.9 -39.94,192.16 -210.2,336.55 -414.21,336.55 -233.66,0 -423.08,-189.42 -423.08,-423.08 0,-233.66 189.42,-423.08 423.08,-423.08z"/>
  <path class="fil2" d="M391.88 685.34c59.06,39.25 94.98,58.13 196.64,67.25 101.66,9.11 275.15,-84.52 333.4,-206.33 -41.54,193.49 -218.66,338.89 -430.86,338.89 -243.06,0 -440.09,-190.74 -440.09,-426.02 0,-129.88 60.06,-246.16 154.72,-324.3 -48.27,60.17 -77.02,98.06 -77.02,217.83 0,119.76 116.71,285.97 263.21,332.68z"/>
  <path class="fil0" d="M630.52 957.56c-1.17,-2.27 -2.54,-4.02 -4.14,-5.24 -1.59,-1.23 -3.2,-2.06 -4.83,-2.48 -1.63,-0.43 -3.19,-0.49 -4.69,-0.19 -1.5,0.31 -2.74,0.83 -3.73,1.57 -0.98,0.74 -1.59,1.63 -1.84,2.67 -0.25,1.04 0.06,2.12 0.92,3.22 1.17,1.47 2.82,3.08 4.97,4.83 2.15,1.75 4.37,3.6 6.67,5.57 2.3,1.96 4.49,3.99 6.58,6.07 2.09,2.09 3.62,4.2 4.6,6.35 1.22,2.76 1.75,5.66 1.56,8.7 -0.19,3.04 -1.06,5.81 -2.62,8.33 -1.56,2.52 -3.79,4.59 -6.67,6.21 -2.88,1.63 -6.38,2.44 -10.49,2.44 -2.45,0 -4.86,-0.39 -7.22,-1.15 -2.36,-0.77 -4.59,-1.84 -6.67,-3.22 -2.09,-1.38 -4,-3.02 -5.75,-4.92 -1.75,-1.9 -3.21,-4.02 -4.37,-6.35l9.67 -7.09c0.55,1.17 1.26,2.3 2.11,3.41 0.86,1.1 1.81,2.13 2.85,3.08 1.04,0.95 2.13,1.78 3.27,2.48 1.13,0.7 2.22,1.21 3.27,1.52 1.84,0.49 3.57,0.55 5.2,0.19 1.63,-0.37 2.9,-1.06 3.82,-2.07 0.92,-1.02 1.38,-2.27 1.38,-3.78 0,-1.5 -0.7,-3.15 -2.12,-4.92 -1.53,-1.91 -3.59,-3.87 -6.17,-5.89 -2.57,-2.02 -5.12,-4.17 -7.64,-6.44 -2.52,-2.27 -4.69,-4.72 -6.54,-7.36 -1.84,-2.64 -2.76,-5.52 -2.76,-8.65 0,-2.39 0.49,-4.6 1.47,-6.63 0.98,-2.03 2.29,-3.74 3.91,-5.15 1.63,-1.41 3.51,-2.52 5.66,-3.31 2.15,-0.8 4.39,-1.2 6.72,-1.2 2.94,0 5.69,0.41 8.24,1.24 2.55,0.83 4.62,2.01 6.21,3.54 1.17,1.04 2.06,2.21 2.67,3.5 0.61,1.29 0.92,2.59 0.92,3.91 0,1.32 -0.35,2.61 -1.06,3.87 -0.71,1.26 -1.83,2.38 -3.36,3.36z"/>
  <path id="1" class="fil0" d="M689.09 939.52l12.24 0 0 40.13c0,2.02 0.17,3.88 0.5,5.57 0.34,1.69 0.91,3.13 1.7,4.33 0.8,1.2 1.85,2.13 3.17,2.81 1.32,0.67 2.96,1.01 4.93,1.01 3.99,0 6.84,-1.23 8.56,-3.68 1.72,-2.46 2.57,-5.89 2.57,-10.31l0 -28.72c0,-1.65 0.19,-3.19 0.56,-4.6 0.37,-1.41 1.03,-2.61 1.94,-3.59 0.94,-0.98 2.18,-1.73 3.76,-2.26 1.58,-0.52 3.57,-0.75 5.98,-0.69l0 38.1c0,3.99 -0.33,7.67 -1.01,11.05 -0.67,3.37 -1.89,6.27 -3.65,8.7 -1.75,2.42 -4.13,4.31 -7.15,5.66 -3.01,1.35 -6.81,2.03 -11.43,2.03 -4.62,0 -8.39,-0.68 -11.33,-2.03 -2.96,-1.35 -5.28,-3.24 -6.96,-5.66 -1.7,-2.43 -2.85,-5.31 -3.46,-8.65 -0.61,-3.34 -0.92,-7.04 -0.92,-11.09l0 -38.1z"/>
  <path id="2" class="fil0" d="M798.93 939.43l14.08 0c4.48,0 8.22,0.92 11.23,2.76 3.01,1.84 5.31,4.2 6.9,7.06 1.59,2.85 2.5,6.01 2.72,9.49 0.21,3.47 -0.17,6.83 -1.15,10.09 -0.98,3.25 -2.56,6.2 -4.74,8.85 -2.18,2.64 -4.86,4.57 -8.06,5.8l16.11 20.46 -15 0 -17.85 -22.64c-1.35,-1.72 -1.95,-3.62 -1.8,-5.71 0.15,-2.09 0.75,-3.89 1.8,-5.43 0.31,0.67 0.89,1.2 1.75,1.56 0.86,0.37 1.83,0.65 2.9,0.83 1.07,0.19 2.13,0.28 3.18,0.28 1.04,0 1.93,-0.06 2.67,-0.19 1.65,-0.31 3.08,-1.04 4.28,-2.21 1.2,-1.17 2.09,-2.53 2.67,-4.09 0.58,-1.56 0.87,-3.22 0.87,-4.97 0,-1.75 -0.35,-3.36 -1.06,-4.83 -0.7,-1.47 -1.81,-2.68 -3.31,-3.63 -1.5,-0.95 -3.42,-1.43 -5.75,-1.43l-10.4 0 0 52.46 -12.24 0 0 -53.18c0,-3.38 0.77,-6.12 2.3,-8.21 1.54,-2.09 4.17,-3.13 7.92,-3.13z"/>
  <path id="3" class="fil0" d="M910.5 948.08c1.23,-3.25 3.06,-5.61 5.48,-7.09 2.43,-1.47 5.75,-1.84 9.99,-1.11l24.66 64.06 -12.7 0 -4.97 -13.16c-1.84,0 -3.83,-0.02 -5.98,-0.04 -2.15,-0.03 -4.1,0.11 -5.85,0.41 -1.75,0.31 -3.11,0.84 -4.09,1.61 -0.98,0.77 -1.23,1.98 -0.74,3.63 -2.21,-0.61 -3.88,-1.55 -5.02,-2.81 -1.13,-1.26 -1.83,-2.59 -2.07,-4 -0.24,-1.41 -0.09,-2.81 0.46,-4.19 0.55,-1.38 1.38,-2.53 2.48,-3.45 1.04,-0.92 2.22,-1.58 3.54,-1.98 1.32,-0.4 2.7,-0.68 4.14,-0.83 1.44,-0.15 2.9,-0.21 4.37,-0.19 1.47,0.03 2.89,0.05 4.24,0.05l-8.65 -22.09c-1.96,4.97 -3.7,9.4 -5.2,13.3 -1.5,3.89 -2.94,7.61 -4.33,11.13 -1.38,3.53 -2.76,7.09 -4.14,10.68 -1.38,3.59 -2.9,7.56 -4.56,11.92l-12.7 0 21.63 -55.86z"/>
  <path id="4" class="fil0" d="M1003.5 1003.94l0 -53.56c0.06,-6.38 3,-10 8.83,-10.86l12.61 0c3.13,0 5.94,0.61 8.42,1.84 2.48,1.23 4.59,2.92 6.31,5.06 1.35,1.66 2.31,3.51 2.9,5.57 0.58,2.06 0.75,4.09 0.5,6.12 -0.24,2.02 -0.9,3.96 -1.98,5.8 -1.07,1.84 -2.59,3.41 -4.56,4.7 2.52,0.98 4.61,2.33 6.3,4.05 1.69,1.72 2.96,3.62 3.82,5.7 0.86,2.09 1.3,4.27 1.33,6.54 0.03,2.27 -0.34,4.46 -1.1,6.58 -0.77,2.11 -1.92,4.08 -3.45,5.89 -1.54,1.81 -3.44,3.26 -5.7,4.37 -2.94,1.47 -7.03,2.21 -12.24,2.21l-22 0zm12.24 -52.64l0 41.05c0.98,0 2.09,0.02 3.31,0.04 1.23,0.03 2.48,0.05 3.78,0.05 1.29,0 2.54,-0.05 3.77,-0.14 1.23,-0.09 2.3,-0.29 3.22,-0.6 2.33,-0.61 3.99,-1.67 4.97,-3.17 0.98,-1.5 1.36,-3.09 1.15,-4.74 -0.22,-1.66 -0.97,-3.22 -2.26,-4.7 -1.29,-1.47 -3.04,-2.45 -5.24,-2.94 -0.68,-0.12 -1.5,-0.23 -2.48,-0.32 -0.98,-0.09 -2.01,-0.09 -3.09,0 -1.07,0.09 -2.07,0.29 -2.99,0.6 -0.92,0.3 -1.59,0.83 -2.03,1.56 -0.74,-1.72 -1.18,-3.3 -1.33,-4.74 -0.15,-1.44 0.06,-2.74 0.64,-3.91 0.58,-1.17 1.59,-2.15 3.04,-2.94 1.44,-0.8 3.39,-1.44 5.84,-1.93 1.54,-0.31 2.81,-1.07 3.82,-2.3 1.01,-1.22 1.52,-2.67 1.52,-4.32 0,-1.78 -0.6,-3.19 -1.8,-4.24 -1.2,-1.04 -2.56,-1.72 -4.09,-2.02 -0.68,-0.12 -1.46,-0.21 -2.35,-0.28 -0.89,-0.06 -1.78,-0.09 -2.67,-0.09 -0.89,0 -1.76,0.01 -2.63,0.04 -0.86,0.03 -1.56,0.05 -2.11,0.05z"/>
  <path id="5" class="fil0" d="M1117.74 948.08c1.23,-3.25 3.06,-5.61 5.48,-7.09 2.43,-1.47 5.75,-1.84 9.99,-1.11l24.66 64.06 -12.7 0 -4.97 -13.16c-1.84,0 -3.83,-0.02 -5.98,-0.04 -2.15,-0.03 -4.1,0.11 -5.85,0.41 -1.75,0.31 -3.11,0.84 -4.09,1.61 -0.98,0.77 -1.23,1.98 -0.74,3.63 -2.21,-0.61 -3.88,-1.55 -5.02,-2.81 -1.13,-1.26 -1.83,-2.59 -2.07,-4 -0.24,-1.41 -0.09,-2.81 0.46,-4.19 0.55,-1.38 1.38,-2.53 2.48,-3.45 1.04,-0.92 2.22,-1.58 3.54,-1.98 1.32,-0.4 2.7,-0.68 4.14,-0.83 1.44,-0.15 2.9,-0.21 4.37,-0.19 1.47,0.03 2.89,0.05 4.24,0.05l-8.65 -22.09c-1.96,4.97 -3.7,9.4 -5.2,13.3 -1.5,3.89 -2.94,7.61 -4.33,11.13 -1.38,3.53 -2.76,7.09 -4.14,10.68 -1.38,3.59 -2.9,7.56 -4.56,11.92l-12.7 0 21.63 -55.86z"/>
  <path id="6" class="fil0" d="M1228.96 1004.77c-3,0 -5.77,-0.38 -8.28,-1.15 -2.52,-0.77 -4.6,-1.93 -6.26,-3.5 -1.66,-1.56 -2.78,-3.53 -3.36,-5.89 -0.58,-2.36 -0.42,-5.11 0.5,-8.24 0.74,1.35 1.7,2.53 2.9,3.54 1.19,1.01 2.53,1.84 4,2.48 1.47,0.64 3.01,1.12 4.6,1.43 1.59,0.31 3.16,0.43 4.69,0.37 4.36,-0.13 7.7,-1.24 10.03,-3.36 2.33,-2.11 3.5,-5.38 3.5,-9.8 -0.43,1.1 -1.17,2.09 -2.21,2.94 -1.04,0.86 -2.21,1.58 -3.5,2.16 -1.29,0.58 -2.61,1.03 -3.96,1.33 -1.35,0.31 -2.57,0.49 -3.68,0.55 -2.33,0.13 -4.62,-0.18 -6.85,-0.92 -2.24,-0.74 -4.28,-2.06 -6.12,-3.96 -2.7,-2.7 -4.05,-6.78 -4.05,-12.24l0 -31.02 11.59 0c0,1.04 -0.02,2.44 -0.05,4.19 -0.03,1.75 -0.04,3.67 -0.04,5.75 0,2.09 0,4.25 0,6.49 0,2.24 0.03,4.36 0.09,6.35 0.06,2 0.15,3.78 0.28,5.34 0.12,1.57 0.28,2.72 0.46,3.45 0.49,1.9 1.39,3.36 2.72,4.37 1.32,1.01 2.78,1.49 4.37,1.43 1.04,0 2.02,-0.17 2.94,-0.5 0.92,-0.34 1.73,-0.8 2.44,-1.38 0.71,-0.58 1.26,-1.26 1.66,-2.02 0.4,-0.77 0.6,-1.61 0.6,-2.53 0.86,0.24 1.55,0.65 2.07,1.2 0.52,0.55 0.94,1.23 1.24,2.02l0 -34.14 11.78 0 0 41.69c0,7.18 -2.04,12.9 -6.12,17.17 -4.08,4.26 -10.07,6.39 -17.99,6.39z"/>
  <path id="7" class="fil0" d="M1323.24 948.08c1.23,-3.25 3.06,-5.61 5.48,-7.09 2.43,-1.47 5.75,-1.84 9.99,-1.11l24.66 64.06 -12.7 0 -4.97 -13.16c-1.84,0 -3.83,-0.02 -5.98,-0.04 -2.15,-0.03 -4.1,0.11 -5.85,0.41 -1.75,0.31 -3.11,0.84 -4.09,1.61 -0.98,0.77 -1.23,1.98 -0.74,3.63 -2.21,-0.61 -3.88,-1.55 -5.02,-2.81 -1.13,-1.26 -1.83,-2.59 -2.07,-4 -0.24,-1.41 -0.09,-2.81 0.46,-4.19 0.55,-1.38 1.38,-2.53 2.48,-3.45 1.04,-0.92 2.22,-1.58 3.54,-1.98 1.32,-0.4 2.7,-0.68 4.14,-0.83 1.44,-0.15 2.9,-0.21 4.37,-0.19 1.47,0.03 2.89,0.05 4.24,0.05l-8.65 -22.09c-1.96,4.97 -3.7,9.4 -5.2,13.3 -1.5,3.89 -2.94,7.61 -4.33,11.13 -1.38,3.53 -2.76,7.09 -4.14,10.68 -1.38,3.59 -2.9,7.56 -4.56,11.92l-12.7 0 21.63 -55.86z"/>
  <path class="fil3" d="M378.3 886.52l-88.14 0 0 -394.33c0,-22.09 8.06,-39.32 24.08,-51.69 16.02,-12.37 37.33,-18.33 64.06,-17.89l0 463.91z"/>
  <path id="1" class="fil3" d="M545.97 582.99l91.46 -117.3c17.23,-24.74 37.11,-39.98 59.65,-45.73 22.53,-5.74 49.48,-5.08 80.85,1.99l-85.49 109.35 -76.88 98.08 178.28 257.14 -104.71 0 -143.15 -206.77 0 206.77 -89.47 0 0 -464.57 89.47 0 0 161.04z"/>
  <path id="2" class="fil3" d="M913.68 421.94l102.17 0c35.79,0 64.95,8.17 87.48,24.41 22.54,16.24 38.99,36.45 49.37,60.64 10.38,24.19 14.8,50.26 13.26,78.31 -1.55,28.06 -8.28,54.12 -20.21,78.2 -11.93,24.08 -28.94,44.18 -51.03,60.31 -22.09,16.13 -48.6,24.19 -79.53,24.19 -23.42,0 -41.42,-3.87 -54.01,-11.6 -12.59,-7.73 -21.1,-17.01 -25.52,-27.83 -4.42,-10.82 -5.52,-22.2 -3.31,-34.13 2.21,-11.93 6.41,-22.31 12.59,-31.15 2.21,4.86 6.41,8.62 12.59,11.27 6.19,2.65 13.14,4.64 20.87,5.96 7.73,1.33 15.35,1.99 22.87,1.99 7.51,0 13.7,-0.44 18.56,-1.33 11.93,-2.21 22.2,-7.51 30.82,-15.91 8.61,-8.39 15.02,-18.22 19.22,-29.49 4.2,-11.27 6.3,-23.2 6.3,-35.79 0,-12.59 -2.54,-24.19 -7.62,-34.8 -5.08,-10.6 -13.04,-19.33 -23.86,-26.18 -10.83,-6.85 -24.63,-10.27 -41.42,-10.27l-74.89 0 0 377.76 -88.14 0 0 -382.95c0,-24.3 5.52,-44.07 16.68,-59.09 11.16,-15.02 30.04,-22.53 56.78,-22.53z"/>
  <path id="3" class="fil3" d="M1333.3 421.94l108.03 324.07 108.69 -324.07 27.83 0 0.66 0 87.48 0 0 463.91 -88.14 0 0 -291.6 -72.24 214.72c-2.21,6.63 -4.09,13.37 -5.63,20.21 -1.54,6.85 -2.43,13.48 -2.65,19.88 -0.22,6.41 0.66,12.37 2.65,17.89 1.99,5.52 5.63,10.05 10.94,13.59 -11.93,6.19 -25.07,9.39 -39.43,9.61 -14.36,0.22 -26.18,-1.44 -35.46,-4.97 -7.95,-3.09 -15.13,-7.4 -21.54,-12.92 -6.41,-5.52 -12.04,-11.71 -16.9,-18.56 -4.86,-6.85 -8.95,-14.14 -12.26,-21.87 -3.31,-7.73 -6.3,-15.35 -8.95,-22.86l-69.59 -208.76 0 285.64 -88.14 0 0 -394.33c0,-21.65 6.74,-38.66 20.21,-51.03 13.48,-12.37 31.92,-18.56 55.34,-18.56l39.1 0z"/>
  <path id="4" class="fil4 str0" d="M378.3 886.52l-88.14 0 0 -394.33c0,-22.09 8.06,-39.32 24.08,-51.69 16.02,-12.37 37.33,-18.33 64.06,-17.89l0 463.91z"/>
  <path id="5" class="fil4 str0" d="M545.97 582.99l91.46 -117.3c17.23,-24.74 37.11,-39.98 59.65,-45.73 22.53,-5.74 49.48,-5.08 80.85,1.99l-85.49 109.35 -76.88 98.08 178.28 257.14 -104.71 0 -143.15 -206.77 0 206.77 -89.47 0 0 -464.57 89.47 0 0 161.04z"/>
  <path id="6" class="fil4 str0" d="M913.68 421.94l102.17 0c35.79,0 64.95,8.17 87.48,24.41 22.54,16.24 38.99,36.45 49.37,60.64 10.38,24.19 14.8,50.26 13.26,78.31 -1.55,28.06 -8.28,54.12 -20.21,78.2 -11.93,24.08 -28.94,44.18 -51.03,60.31 -22.09,16.13 -48.6,24.19 -79.53,24.19 -23.42,0 -41.42,-3.87 -54.01,-11.6 -12.59,-7.73 -21.1,-17.01 -25.52,-27.83 -4.42,-10.82 -5.52,-22.2 -3.31,-34.13 2.21,-11.93 6.41,-22.31 12.59,-31.15 2.21,4.86 6.41,8.62 12.59,11.27 6.19,2.65 13.14,4.64 20.87,5.96 7.73,1.33 15.35,1.99 22.87,1.99 7.51,0 13.7,-0.44 18.56,-1.33 11.93,-2.21 22.2,-7.51 30.82,-15.91 8.61,-8.39 15.02,-18.22 19.22,-29.49 4.2,-11.27 6.3,-23.2 6.3,-35.79 0,-12.59 -2.54,-24.19 -7.62,-34.8 -5.08,-10.6 -13.04,-19.33 -23.86,-26.18 -10.83,-6.85 -24.63,-10.27 -41.42,-10.27l-74.89 0 0 377.76 -88.14 0 0 -382.95c0,-24.3 5.52,-44.07 16.68,-59.09 11.16,-15.02 30.04,-22.53 56.78,-22.53z"/>
  <path id="7" class="fil4 str0" d="M1333.3 421.94l108.03 324.07 108.69 -324.07 27.83 0 0.66 0 87.48 0 0 463.91 -88.14 0 0 -291.6 -72.24 214.72c-2.21,6.63 -4.09,13.37 -5.63,20.21 -1.54,6.85 -2.43,13.48 -2.65,19.88 -0.22,6.41 0.66,12.37 2.65,17.89 1.99,5.52 5.63,10.05 10.94,13.59 -11.93,6.19 -25.07,9.39 -39.43,9.61 -14.36,0.22 -26.18,-1.44 -35.46,-4.97 -7.95,-3.09 -15.13,-7.4 -21.54,-12.92 -6.41,-5.52 -12.04,-11.71 -16.9,-18.56 -4.86,-6.85 -8.95,-14.14 -12.26,-21.87 -3.31,-7.73 -6.3,-15.35 -8.95,-22.86l-69.59 -208.76 0 285.64 -88.14 0 0 -394.33c0,-21.65 6.74,-38.66 20.21,-51.03 13.48,-12.37 31.92,-18.56 55.34,-18.56l39.1 0z"/>
  <path class="fil5" d="M659.21 746c119.7,-40.89 213.27,-101.14 261.74,-197.4 -43.17,214.46 -239.06,344.44 -439.99,344.44 -200.93,0 -347.03,-105.87 -413.17,-255.96 74.61,110.28 240.94,183.7 359.26,183.7 118.32,0 165.88,-35.12 232.16,-74.79z"/>
  <path class="fil6" d="M546.51 943.14l-256.37 0 0 36.57c0,11.49 9.39,20.87 20.87,20.87l256.37 0 0 -36.57c0,-11.48 -9.39,-20.87 -20.87,-20.87z"/>
  <path class="fil6" d="M1645.15 943.14l-256.38 0 0 36.57c0,11.49 9.39,20.87 20.87,20.87l256.38 0 0 -36.57c0,-11.48 -9.39,-20.87 -20.87,-20.87z"/>
  <path class="fil0" d="M546.08 1081.76c-1.85,0.33 -3.43,0.17 -4.73,-0.5 -1.3,-0.67 -2.29,-1.6 -2.95,-2.81 -0.67,-1.21 -0.98,-2.6 -0.96,-4.16 0.02,-1.57 0.46,-3.06 1.32,-4.48 1.14,-1.9 2.7,-3.37 4.69,-4.41 1.99,-1.04 4.13,-1.72 6.41,-2.03 2.28,-0.31 4.53,-0.28 6.76,0.07 2.23,0.36 4.13,0.96 5.69,1.81 1.14,0.62 2.17,1.39 3.09,2.31 0.93,0.93 1.73,1.96 2.42,3.09 0.69,1.14 1.21,2.32 1.56,3.56 0.36,1.23 0.54,2.49 0.54,3.77 0,2.65 -0.54,5.18 -1.6,7.57 -1.07,2.4 -2.44,4.72 -4.13,6.98 -1.69,2.25 -3.55,4.43 -5.59,6.54 -2.04,2.11 -4.01,4.19 -5.91,6.23l17.65 0 0 8.68 -34.3 0c0,-1.94 0.69,-3.89 2.06,-5.83 1.37,-1.94 3.54,-4.39 6.48,-7.33 1.42,-1.42 2.87,-2.89 4.34,-4.41 1.47,-1.52 2.86,-2.99 4.16,-4.41 1.31,-1.42 2.46,-2.75 3.45,-3.98 1,-1.23 1.71,-2.28 2.13,-3.13 1.19,-2.23 1.73,-4.2 1.64,-5.91 -0.09,-1.71 -0.59,-3.11 -1.5,-4.2 -0.9,-1.09 -2.07,-1.86 -3.52,-2.31 -1.45,-0.45 -2.88,-0.54 -4.31,-0.25 -0.85,0.14 -1.71,0.52 -2.56,1.14 -0.85,0.61 -1.57,1.36 -2.14,2.24 -0.57,0.88 -0.91,1.85 -1.03,2.92 -0.12,1.07 0.15,2.15 0.82,3.24z"/>
  <path id="1" class="fil0" d="M632.48 1063.26c3.61,0 6.56,0.75 8.85,2.24 2.28,1.49 4.06,3.45 5.33,5.87 1.3,2.42 2.17,5.18 2.65,8.29 0.48,3.11 0.71,6.28 0.71,9.5 0,3.23 -0.22,6.39 -0.68,9.5 -0.45,3.11 -1.31,5.88 -2.61,8.33 -1.28,2.44 -3.05,4.41 -5.3,5.91 -2.26,1.49 -5.17,2.24 -8.74,2.24 -3.57,0 -6.48,-0.72 -8.73,-2.17 -2.27,-1.45 -4.04,-3.36 -5.35,-5.73 -1.31,-2.37 -2.2,-5.09 -2.68,-8.15 -0.47,-3.06 -0.71,-6.2 -0.71,-9.43 0,-9.06 1.4,-15.63 4.21,-19.71 3.13,-4.46 7.48,-6.69 13.05,-6.69zm0.25 8.89c-1.94,0 -3.45,0.61 -4.52,1.81 -1.07,1.21 -1.86,2.72 -2.38,4.52 -0.52,1.8 -0.84,3.72 -0.96,5.76 -0.12,2.04 -0.18,3.91 -0.18,5.62 0,1.85 0.09,3.75 0.28,5.69 0.19,1.94 0.57,3.71 1.14,5.3 0.57,1.59 1.39,2.89 2.46,3.91 1.07,1.02 2.45,1.53 4.16,1.53 1.71,0 3.07,-0.55 4.09,-1.64 1.02,-1.09 1.8,-2.48 2.35,-4.16 0.54,-1.69 0.91,-3.52 1.1,-5.52 0.19,-1.99 0.28,-3.91 0.28,-5.76 0,-1.9 -0.08,-3.85 -0.25,-5.87 -0.17,-2.02 -0.54,-3.85 -1.1,-5.52 -0.57,-1.66 -1.37,-3.02 -2.39,-4.09 -1.02,-1.07 -2.38,-1.6 -4.09,-1.6z"/>
  <path id="2" class="fil0" d="M704.85 1081.76c-1.85,0.33 -3.43,0.17 -4.73,-0.5 -1.3,-0.67 -2.29,-1.6 -2.95,-2.81 -0.67,-1.21 -0.98,-2.6 -0.96,-4.16 0.02,-1.57 0.46,-3.06 1.32,-4.48 1.14,-1.9 2.7,-3.37 4.69,-4.41 1.99,-1.04 4.13,-1.72 6.41,-2.03 2.28,-0.31 4.53,-0.28 6.76,0.07 2.23,0.36 4.13,0.96 5.69,1.81 1.14,0.62 2.17,1.39 3.09,2.31 0.93,0.93 1.73,1.96 2.42,3.09 0.69,1.14 1.21,2.32 1.56,3.56 0.36,1.23 0.54,2.49 0.54,3.77 0,2.65 -0.54,5.18 -1.6,7.57 -1.07,2.4 -2.44,4.72 -4.13,6.98 -1.69,2.25 -3.55,4.43 -5.59,6.54 -2.04,2.11 -4.01,4.19 -5.91,6.23l17.65 0 0 8.68 -34.3 0c0,-1.94 0.69,-3.89 2.06,-5.83 1.37,-1.94 3.54,-4.39 6.48,-7.33 1.42,-1.42 2.87,-2.89 4.34,-4.41 1.47,-1.52 2.86,-2.99 4.16,-4.41 1.31,-1.42 2.46,-2.75 3.45,-3.98 1,-1.23 1.71,-2.28 2.13,-3.13 1.19,-2.23 1.73,-4.2 1.64,-5.91 -0.09,-1.71 -0.59,-3.11 -1.5,-4.2 -0.9,-1.09 -2.07,-1.86 -3.52,-2.31 -1.45,-0.45 -2.88,-0.54 -4.31,-0.25 -0.85,0.14 -1.71,0.52 -2.56,1.14 -0.85,0.61 -1.57,1.36 -2.14,2.24 -0.57,0.88 -0.91,1.85 -1.03,2.92 -0.12,1.07 0.15,2.15 0.82,3.24z"/>
  <path id="3" class="fil0" d="M790.21 1064.11c1.23,0.14 2.3,0.49 3.2,1.03 0.9,0.55 1.58,1.24 2.03,2.1 0.45,0.85 0.68,1.79 0.68,2.81 0,1.02 -0.26,2.05 -0.78,3.1l-11.31 22.84c-0.38,0.71 -0.65,1.56 -0.82,2.53 -0.17,0.97 -0.14,1.96 0.07,2.95 0.22,1 0.69,1.91 1.43,2.74 0.74,0.83 1.84,1.46 3.31,1.89 0.85,0.24 1.72,0.25 2.6,0.04 0.88,-0.21 1.67,-0.62 2.38,-1.21 0.71,-0.59 1.28,-1.34 1.71,-2.24 0.43,-0.9 0.64,-1.92 0.64,-3.06 0,-1.04 -0.25,-1.98 -0.75,-2.81 -0.5,-0.83 -1.14,-1.52 -1.92,-2.06 -0.78,-0.55 -1.66,-0.88 -2.63,-1 -0.97,-0.12 -1.96,0.01 -2.95,0.39 -0.24,-0.95 -0.17,-1.87 0.22,-2.78 0.38,-0.9 0.96,-1.68 1.74,-2.35 0.78,-0.67 1.73,-1.17 2.85,-1.53 1.11,-0.35 2.28,-0.46 3.49,-0.32 1.21,0.14 2.42,0.58 3.63,1.31 1.21,0.74 2.31,1.84 3.31,3.31 0.9,1.37 1.53,2.87 1.89,4.48 0.35,1.61 0.44,3.26 0.25,4.94 -0.19,1.68 -0.65,3.32 -1.39,4.91 -0.74,1.59 -1.77,3.02 -3.09,4.3 -1.85,1.85 -3.87,3.11 -6.05,3.77 -2.18,0.67 -4.33,0.85 -6.44,0.57 -2.11,-0.28 -4.12,-0.97 -6.02,-2.06 -1.9,-1.09 -3.47,-2.5 -4.73,-4.24 -1.26,-1.73 -2.1,-3.72 -2.53,-5.98 -0.43,-2.25 -0.26,-4.64 0.5,-7.15 0.19,-0.62 0.64,-1.71 1.35,-3.28 0.71,-1.56 1.57,-3.37 2.6,-5.41 1.02,-2.04 2.11,-4.21 3.27,-6.51 1.16,-2.3 2.29,-4.51 3.38,-6.62 1.09,-2.11 2.08,-4.01 2.96,-5.69 0.87,-1.69 1.53,-2.93 1.96,-3.74z"/>
  <path id="4" class="fil0" d="M879.56 1064.11l11.6 34.8 11.67 -34.8 2.99 0 0.07 0 9.39 0 0 49.81 -9.46 0 0 -31.31 -7.76 23.06c-0.24,0.71 -0.44,1.44 -0.61,2.17 -0.17,0.73 -0.26,1.44 -0.28,2.13 -0.02,0.69 0.07,1.33 0.28,1.92 0.21,0.59 0.61,1.08 1.17,1.46 -1.28,0.67 -2.69,1.01 -4.23,1.03 -1.54,0.02 -2.81,-0.15 -3.81,-0.53 -0.85,-0.33 -1.63,-0.8 -2.31,-1.39 -0.69,-0.59 -1.3,-1.26 -1.81,-1.99 -0.52,-0.73 -0.96,-1.52 -1.32,-2.35 -0.35,-0.83 -0.67,-1.65 -0.96,-2.46l-7.47 -22.41 0 30.67 -9.46 0 0 -42.34c0,-2.33 0.72,-4.15 2.17,-5.48 1.44,-1.33 3.43,-1.99 5.94,-1.99l4.2 0z"/>
  <path id="5" class="fil0" d="M977.93 1123.32l20.85 -56c0.62,-1.66 1.63,-2.69 3.03,-3.09 1.4,-0.4 2.98,-0.53 4.73,-0.39l-21.06 56.43c-0.29,0.76 -0.68,1.36 -1.18,1.81 -0.5,0.45 -1.09,0.78 -1.78,1 -0.69,0.22 -1.42,0.33 -2.2,0.36 -0.78,0.02 -1.57,-0.01 -2.38,-0.11z"/>
  <path id="6" class="fil0" d="M1077.17 1064.19l8.83 0 0 49.81 -9.46 0 0 -40.92 -9.32 0c-0.38,-2.61 0.28,-4.74 1.99,-6.4 1.71,-1.66 4.37,-2.49 7.97,-2.49z"/>
  <path id="7" class="fil0" d="M1151.85 1064.4c2.89,-0.52 5.13,-0.11 6.72,1.25 1.59,1.35 2.38,3.64 2.38,6.87l0 23.13 4.34 0 0 8.47 -4.34 0 0 9.89 -9.04 0 0 -9.89 -21.13 0 0 -8.47 21.06 -31.24zm0.07 31.24l0 -16.3 -11.03 16.3 11.03 0z"/>
  <path id="8" class="fil0" d="M1231.24 1064.4c2.89,-0.52 5.13,-0.11 6.72,1.25 1.59,1.35 2.38,3.64 2.38,6.87l0 23.13 4.34 0 0 8.47 -4.34 0 0 9.89 -9.04 0 0 -9.89 -21.13 0 0 -8.47 21.06 -31.24zm0.07 31.24l0 -16.3 -11.03 16.3 11.03 0z"/>
  <path id="9" class="fil0" d="M1289.63 1064.19l32.66 0 0 4.98 -21.85 44.83 -9.89 0 20 -40.92 -12.81 0c-2.8,0 -4.89,-0.73 -6.26,-2.2 -1.38,-1.47 -1.99,-3.7 -1.85,-6.69z"/>
  <path id="10" class="fil0" d="M1394.55 1064.19l0 20.35 16.65 0 0 -20.35 9.61 0 0 49.81 -9.61 0 0 -20.35 -9.46 0c-0.81,0 -1.61,-0.09 -2.42,-0.28 -0.81,-0.19 -1.53,-0.5 -2.17,-0.93 -0.64,-0.43 -1.2,-0.98 -1.67,-1.67 -0.48,-0.69 -0.78,-1.56 -0.93,-2.6l0 25.83 -9.61 0 0 -42.2c0,-1.33 0.27,-2.48 0.82,-3.45 0.54,-0.97 1.26,-1.77 2.13,-2.39 0.88,-0.62 1.9,-1.07 3.06,-1.35 1.16,-0.29 2.36,-0.43 3.59,-0.43z"/>
  <path class="fil6" d="M1590.69 1022.37l-1228.38 0 0 5.52c0,1.73 1.41,3.15 3.15,3.15l1228.37 0 0 -5.52c0,-1.73 -1.41,-3.15 -3.14,-3.15z"/>
 </g>
</svg>
